<svg class="animated" id="freepik_stories-cool-robot" xmlns="http://www.w3.org/2000/svg" viewBox="0 0 500 500" version="1.1" xmlns:xlink="http://www.w3.org/1999/xlink" xmlns:svgjs="http://svgjs.com/svgjs"><style>svg#freepik_stories-cool-robot:not(.animated) .animable {opacity: 0;}svg#freepik_stories-cool-robot.animated #freepik--Plants--inject-23 {animation: 1s 1 forwards cubic-bezier(.36,-0.01,.5,1.38) fadeIn,1.5s Infinite  linear floating;animation-delay: 0s,1s;}svg#freepik_stories-cool-robot.animated #freepik--Robot--inject-23 {animation: 1s 1 forwards cubic-bezier(.36,-0.01,.5,1.38) fadeIn;animation-delay: 0s;}            @keyframes fadeIn {                0% {                    opacity: 0;                }                100% {                    opacity: 1;                }            }                    @keyframes floating {                0% {                    opacity: 1;                    transform: translateY(0px);                }                50% {                    transform: translateY(-10px);                }                100% {                    opacity: 1;                    transform: translateY(0px);                }            }        .animator-hidden { display: none; }</style><g id="freepik--background-complete--inject-23" class="animable animator-hidden" style="transform-origin: 250px 259.41px;"><polygon points="106.31 455.1 105.31 455.1 105.31 377.79 135.25 336.92 135.25 301.14 136.25 301.14 136.25 337.25 136.15 337.38 106.31 378.11 106.31 455.1" style="fill: rgb(235, 235, 235); transform-origin: 120.78px 378.12px;" id="elffmoqke51e" class="animable"></polygon><path d="M135.75,301.69a3.16,3.16,0,1,1,3.16-3.16A3.16,3.16,0,0,1,135.75,301.69Zm0-5.32a2.16,2.16,0,1,0,2.16,2.16A2.16,2.16,0,0,0,135.75,296.37Z" style="fill: rgb(235, 235, 235); transform-origin: 135.75px 298.53px;" id="elvacxbr208" class="animable"></path><polygon points="114.02 455.1 113.02 455.1 113.02 382.72 113.11 382.59 142.96 341.86 142.96 322.14 143.96 322.14 143.96 342.19 114.02 383.05 114.02 455.1" style="fill: rgb(235, 235, 235); transform-origin: 128.49px 388.62px;" id="elksndy49nvc" class="animable"></polygon><path d="M143.46,322.69a3.16,3.16,0,1,1,3.16-3.16A3.16,3.16,0,0,1,143.46,322.69Zm0-5.32a2.16,2.16,0,1,0,2.16,2.16A2.16,2.16,0,0,0,143.46,317.37Z" style="fill: rgb(235, 235, 235); transform-origin: 143.46px 319.53px;" id="elruejcn5o0fr" class="animable"></path><rect x="97.87" y="332.31" width="1" height="122.8" style="fill: rgb(235, 235, 235); transform-origin: 98.37px 393.71px;" id="elri8ps68330n" class="animable"></rect><path d="M98.37,332.81a3.16,3.16,0,1,1,3.17-3.16A3.17,3.17,0,0,1,98.37,332.81Zm0-5.32a2.16,2.16,0,1,0,2.17,2.16A2.16,2.16,0,0,0,98.37,327.49Z" style="fill: rgb(235, 235, 235); transform-origin: 98.38px 329.65px;" id="el80i05n7abkq" class="animable"></path><polygon points="91.72 454.43 90.72 454.43 90.72 390.49 70.39 352.15 70.39 273.29 71.39 273.29 71.39 351.9 91.72 390.25 91.72 454.43" style="fill: rgb(235, 235, 235); transform-origin: 81.055px 363.86px;" id="eleken9gtghr" class="animable"></polygon><path d="M70.89,273.79a3.16,3.16,0,1,1,3.16-3.16A3.16,3.16,0,0,1,70.89,273.79Zm0-5.32a2.16,2.16,0,1,0,2.16,2.16A2.16,2.16,0,0,0,70.89,268.47Z" style="fill: rgb(235, 235, 235); transform-origin: 70.89px 270.63px;" id="el3e7taxsdcpg" class="animable"></path><polygon points="84.61 454.56 83.61 454.56 83.61 394.6 59.65 352.21 59.65 306.81 60.65 306.81 60.65 351.95 84.61 394.33 84.61 454.56" style="fill: rgb(235, 235, 235); transform-origin: 72.13px 380.685px;" id="elozlzqx3lkem" class="animable"></polygon><path d="M60.15,307.31a3.16,3.16,0,1,1,3.16-3.16A3.16,3.16,0,0,1,60.15,307.31Zm0-5.32a2.16,2.16,0,1,0,2.16,2.16A2.16,2.16,0,0,0,60.15,302Z" style="fill: rgb(235, 235, 235); transform-origin: 60.15px 304.15px;" id="elsd0vj9x3r3" class="animable"></path><polygon points="394.69 455.1 393.69 455.1 393.69 348.11 363.75 307.25 363.75 271.14 364.75 271.14 364.75 306.92 394.69 347.79 394.69 455.1" style="fill: rgb(235, 235, 235); transform-origin: 379.22px 363.12px;" id="el9bn8v9io7l" class="animable"></polygon><path d="M364.25,271.69a3.16,3.16,0,1,1,3.16-3.16A3.17,3.17,0,0,1,364.25,271.69Zm0-5.32a2.16,2.16,0,1,0,2.16,2.16A2.16,2.16,0,0,0,364.25,266.37Z" style="fill: rgb(235, 235, 235); transform-origin: 364.25px 268.53px;" id="elw3bqgkcs2" class="animable"></path><polygon points="386.98 455.1 385.98 455.1 385.98 353.05 356.04 312.19 356.04 292.14 357.04 292.14 357.04 311.86 386.98 352.72 386.98 455.1" style="fill: rgb(235, 235, 235); transform-origin: 371.51px 373.62px;" id="eld9kqohx671t" class="animable"></polygon><path d="M356.54,292.69a3.16,3.16,0,1,1,3.16-3.16A3.17,3.17,0,0,1,356.54,292.69Zm0-5.32a2.16,2.16,0,1,0,2.16,2.16A2.16,2.16,0,0,0,356.54,287.37Z" style="fill: rgb(235, 235, 235); transform-origin: 356.54px 289.53px;" id="el0l37kplx3gwi" class="animable"></path><rect x="401.13" y="262.31" width="1" height="192.8" style="fill: rgb(235, 235, 235); transform-origin: 401.63px 358.71px;" id="elm3i9dd5vbq" class="animable"></rect><path d="M401.62,262.81a3.16,3.16,0,1,1,3.17-3.16A3.17,3.17,0,0,1,401.62,262.81Zm0-5.32a2.16,2.16,0,1,0,2.17,2.16A2.16,2.16,0,0,0,401.62,257.49Z" style="fill: rgb(235, 235, 235); transform-origin: 401.63px 259.65px;" id="el6zqcamjqgn" class="animable"></path><polygon points="409.28 454.43 408.28 454.43 408.28 360.25 428.61 321.9 428.61 233.29 429.61 233.29 429.61 322.15 409.28 360.49 409.28 454.43" style="fill: rgb(235, 235, 235); transform-origin: 418.945px 343.86px;" id="el2izpjxabup4" class="animable"></polygon><path d="M429.11,233.79a3.16,3.16,0,1,1,3.16-3.16A3.15,3.15,0,0,1,429.11,233.79Zm0-5.32a2.16,2.16,0,1,0,2.16,2.16A2.16,2.16,0,0,0,429.11,228.47Z" style="fill: rgb(235, 235, 235); transform-origin: 429.11px 230.63px;" id="elye6wv79iq5" class="animable"></path><polygon points="416.39 454.56 415.39 454.56 415.39 364.33 439.35 321.95 439.35 266.81 440.35 266.81 440.35 322.21 416.39 364.6 416.39 454.56" style="fill: rgb(235, 235, 235); transform-origin: 427.87px 360.685px;" id="eln6bqlxsu4ai" class="animable"></polygon><path d="M439.85,267.31a3.16,3.16,0,1,1,3.16-3.16A3.17,3.17,0,0,1,439.85,267.31Zm0-5.32a2.16,2.16,0,1,0,2.16,2.16A2.16,2.16,0,0,0,439.85,262Z" style="fill: rgb(235, 235, 235); transform-origin: 439.85px 264.15px;" id="el9rngu3k689m" class="animable"></path><path d="M65.66,242.86a3,3,0,0,1,0,3.09l-.45.79-.41.82a3,3,0,0,1-2.56,1.73l-3.8.11.39,12.39,3.8-.12a3,3,0,0,1,2.67,1.56,17,17,0,0,0,1,1.57,3,3,0,0,1,.2,3.08l-1.8,3.34,10.93,5.86,1.79-3.35A2.93,2.93,0,0,1,80,272.2c.62,0,1.23,0,1.85-.06a2.93,2.93,0,0,1,2.77,1.36l2,3.23,10.53-6.53-2-3.25a2.94,2.94,0,0,1,0-3.08c.15-.25.3-.52.45-.79s.28-.54.41-.81a3,3,0,0,1,2.56-1.73l3.81-.12L102,248l-3.79.12a3,3,0,0,1-2.67-1.55,17.26,17.26,0,0,0-1-1.58,3,3,0,0,1-.2-3.08l1.8-3.34-10.93-5.86-1.79,3.34a2.94,2.94,0,0,1-2.67,1.54q-.93,0-1.86.06a2.94,2.94,0,0,1-2.77-1.37l-2-3.22-10.53,6.53ZM85.22,246a10.15,10.15,0,1,1-13.75,4.16A10.16,10.16,0,0,1,85.22,246Z" style="fill: rgb(235, 235, 235); transform-origin: 80.41px 254.895px;" id="elgg04nxytrk6" class="animable"></path><path d="M419,303.92a2.05,2.05,0,0,1-1.91,1l-.64,0-.64,0a2.05,2.05,0,0,1-1.91-1l-1.34-2.3L405,306l1.33,2.31a2,2,0,0,1-.07,2.17,11.27,11.27,0,0,0-.65,1.12,2.06,2.06,0,0,1-1.83,1.14h-2.66v8.68h2.66a2.06,2.06,0,0,1,1.83,1.14,12.53,12.53,0,0,0,.65,1.12,2,2,0,0,1,.07,2.16L405,328.1l7.52,4.34,1.34-2.32a2.06,2.06,0,0,1,1.91-1H417a2.05,2.05,0,0,1,1.91,1l1.33,2.31,7.52-4.34-1.33-2.3a2.05,2.05,0,0,1,.08-2.16c.23-.37.45-.74.65-1.13a2.06,2.06,0,0,1,1.83-1.14h2.66v-8.68H429a2,2,0,0,1-1.83-1.15c-.2-.38-.42-.76-.65-1.12a2.05,2.05,0,0,1-.08-2.16L427.8,306l-7.52-4.33Zm4.56,13.1a7.11,7.11,0,1,1-7.11-7.1A7.11,7.11,0,0,1,423.51,317Z" style="fill: rgb(219, 219, 219); transform-origin: 416.385px 317.03px;" id="el7ejhtcnj04d" class="animable"></path><path d="M417.87,126.29a4.64,4.64,0,0,1,2.36-4.25c.41-.23.82-.49,1.22-.75s.8-.54,1.19-.82a4.62,4.62,0,0,1,4.82-.45l5.33,2.7,8.8-17.36-5.33-2.7a4.65,4.65,0,0,1-2.51-4.16,25.62,25.62,0,0,0-.16-2.9,4.66,4.66,0,0,1,2.05-4.39l5-3.26L430,71.65l-5,3.26a4.63,4.63,0,0,1-4.84.1,27.23,27.23,0,0,0-2.59-1.3,4.62,4.62,0,0,1-2.79-4l-.33-6L395,64.84l.32,6A4.6,4.6,0,0,1,393,75.06c-.41.24-.81.49-1.21.76s-.8.53-1.19.81a4.64,4.64,0,0,1-4.83.45l-5.33-2.71-8.8,17.37,5.31,2.69a4.61,4.61,0,0,1,2.52,4.15,25.8,25.8,0,0,0,.16,2.91,4.6,4.6,0,0,1-2.05,4.39l-5,3.26,10.65,16.31,5-3.26a4.61,4.61,0,0,1,4.84-.11,27.6,27.6,0,0,0,2.6,1.32,4.59,4.59,0,0,1,2.79,4l.33,5.95,19.44-1.07Zm-24.63-19a15.95,15.95,0,1,1,22.08,4.62A16,16,0,0,1,393.24,107.28Z" style="fill: rgb(235, 235, 235); transform-origin: 406.615px 98.53px;" id="elg4qeiii7j9" class="animable"></path><path d="M375.41,155.45a2.17,2.17,0,0,1,1.11-2l.57-.35.56-.39a2.19,2.19,0,0,1,2.27-.21l2.51,1.27,4.15-8.18-2.51-1.27a2.17,2.17,0,0,1-1.18-2,12.4,12.4,0,0,0-.08-1.36,2.2,2.2,0,0,1,1-2.07l2.35-1.53-5-7.68-2.35,1.53a2.18,2.18,0,0,1-2.28.05,12.62,12.62,0,0,0-1.22-.61,2.18,2.18,0,0,1-1.31-1.87l-.16-2.81-9.15.5.15,2.83a2.18,2.18,0,0,1-1.11,2l-.57.35-.56.38a2.17,2.17,0,0,1-2.27.22L357.77,131l-4.15,8.18,2.51,1.27a2.18,2.18,0,0,1,1.18,2c0,.46,0,.92.07,1.37a2.17,2.17,0,0,1-1,2.07l-2.35,1.53,5,7.68,2.35-1.53a2.18,2.18,0,0,1,2.28-.05,10.74,10.74,0,0,0,1.22.62,2.19,2.19,0,0,1,1.32,1.87l.15,2.8,9.15-.5Zm-11.6-8.95a7.51,7.51,0,1,1,10.4,2.17A7.52,7.52,0,0,1,363.81,146.5Z" style="fill: rgb(219, 219, 219); transform-origin: 370.1px 142.39px;" id="el960qt0srb36" class="animable"></path></g><g id="freepik--Floor--inject-23" class="animable animator-hidden" style="transform-origin: 250.005px 454.74px;"><polygon points="47.15 454.74 97.86 454.5 148.57 454.41 250 454.24 351.43 454.41 402.14 454.5 452.86 454.74 402.14 454.99 351.43 455.08 250 455.24 148.57 455.07 97.86 454.99 47.15 454.74" style="fill: rgb(38, 50, 56); transform-origin: 250.005px 454.74px;" id="elqki4uzk79j" class="animable"></polygon></g><g id="freepik--Plants--inject-23" class="animable animator-active" style="transform-origin: 297.736px 428.002px;"><path d="M177.94,427.59c-4.21,2.2-8.88,4.72-13.75,3.64-4.5-1-9.25-3.43-10.91-8-.47-1.31-.55-2.22,1-2.33,2.44-.16,5.09,1.34,7.26,2.25a47.78,47.78,0,0,0,8.63,2.8c2.09.45,4.21.67,6.31,1.06l.79.16.3.06.12-.06a.27.27,0,0,1,.22,0l.07.06A.24.24,0,0,1,177.94,427.59Z" style="fill: rgb(69, 90, 100); transform-origin: 165.512px 426.188px;" id="el8tp24yitvx9" class="animable"></path><path d="M178,427.21c-3.8,1.73-7.78,3.84-12,2.72a19.2,19.2,0,0,1-5.52-2.58c-.78-.5-3.09-2-2.95-3.09.25-2,7.7,2.07,8.61,2.37a20.3,20.3,0,0,0,10.38.35l.79.16a23,23,0,0,1-7.4.58c-3.43-.32-6-2-9.19-3.17-.68-.27-2.8-1.22-2.84,0,0,.81,2.22,2.28,2.7,2.6a19.61,19.61,0,0,0,5.24,2.46c4.26,1.19,8.26-.83,12.13-2.49Z" style="fill: rgb(255, 255, 255); transform-origin: 167.762px 426.976px;" id="elcdmlyh4na0m" class="animable"></path><path d="M181.55,429.08c0,.18.09.36.14.55v0a.11.11,0,0,1,0,.12.2.2,0,0,1-.26,0,.12.12,0,0,1,0-.1.22.22,0,0,1,0-.08l0-.17h0s0,0,0,0c-2.11-2.47-3.81-5.28-6-7.74s-4.27-4.54-6.14-7c-1.17-1.57-6.56-9.74-2.18-10.49,1.93-.33,4.28,1.58,5.64,2.75a20,20,0,0,1,4.41,5.61C179.84,417.67,180.2,423.45,181.55,429.08Z" style="fill: rgb(69, 90, 100); transform-origin: 173.565px 416.965px;" id="ell3028sooysp" class="animable"></path><path d="M177.59,417.6a23.3,23.3,0,0,0-3.44-5.64c-.5-.58-2.87-3.4-3.92-2.8-.68.38-.14,1.83,0,2.31.68,2.07,2.26,3.75,3.54,5.47a89.6,89.6,0,0,1,7,11c.08.26.17.54.26.79s.14.44.21.66l.08.23a1.54,1.54,0,0,0,0,.17.21.21,0,0,0,.27,0c-.05-.17-.1-.34-.16-.51.07.13.13.26.2.38h0c0-.15-.08-.3-.11-.44l0-.11c-.1-.22-.21-.43-.32-.64A95.13,95.13,0,0,0,177.59,417.6Zm2.91,9.45c-1.2-2.24-2.51-4.41-3.92-6.53-1.13-1.71-2.35-3.36-3.59-5a20.84,20.84,0,0,1-2-2.87c-.41-.78-1.71-3.78.68-2.68,1.73.81,3.35,3.5,4.26,5.07a32.6,32.6,0,0,1,2.48,5.48C179.21,422.68,179.84,424.88,180.5,427.05Z" style="fill: rgb(255, 255, 255); transform-origin: 175.762px 419.458px;" id="elelm6fvg93wr" class="animable"></path><path d="M189.47,439.74h0l-.15.1c-4,1.67-9.06,4.53-13.55,3.49-3.33-.77-7.5-3.42-8.27-7-.86-4,6.1-2,7.9-1.59a134.29,134.29,0,0,1,14.06,4.76l.08.05h0C189.62,439.61,189.55,439.68,189.47,439.74Z" style="fill: rgb(69, 90, 100); transform-origin: 178.501px 438.715px;" id="elv8pm99iqh" class="animable"></path><path d="M189.55,439.56l-.88-.1c-3.35-.39-6.69-.93-10-1.63-.84-.17-7.12-2-7.12-.28,0,1,2.29,2.08,3,2.44a13.49,13.49,0,0,0,4.25,1.24c3.39.38,6.72-.78,10.05-1.4a3.94,3.94,0,0,1,.47-.1h.1C189.55,439.68,189.61,439.61,189.55,439.56ZM180.73,441a13.62,13.62,0,0,1-4.47-.67c-.95-.31-4.39-1.55-4.23-2.81.08-.67.48-.53,1.25-.52.35,0,.71,0,1.06.08.86.12,1.71.34,2.55.53,1.49.35,3,.66,4.48.94q3.67.69,7.4,1.09C186.08,440.07,183.46,441,180.73,441Z" style="fill: rgb(255, 255, 255); transform-origin: 180.562px 439.062px;" id="elavdpom79egq" class="animable"></path><path d="M192.78,428.25a25.68,25.68,0,0,1-1.12,14.94.56.56,0,0,1,0,.08.21.21,0,0,1-.24,0,.19.19,0,0,1-.09-.24c0-.09.07-.19.11-.29-1.9-5.64-3.71-11.28-5.71-16.88-.47-1.32-3.31-9.81-.22-9.68,1.9.08,3.57,3.32,4.4,4.73A25.61,25.61,0,0,1,192.78,428.25Z" style="fill: rgb(69, 90, 100); transform-origin: 188.747px 429.743px;" id="elkmnfyep3rhs" class="animable"></path><path d="M188,421.79c-.34-.38-.8-.73-1.14-.18-.68,1.05.74,5,1.08,6.12,1.39,4.61,2.35,9.23,3.32,13.93.08.4.16.8.25,1.2l-.09.43a.19.19,0,0,0,.23,0s0-.09,0-.13.08-.39.11-.58h0a30.34,30.34,0,0,0,.27-9.41,28.38,28.38,0,0,0-1.37-5.81C190,425.59,189.22,423.17,188,421.79Zm3.6,20.48c0,.1,0,.19-.05.29,0-.17,0-.33-.07-.5a85,85,0,0,0-2.27-10.92c-.51-1.82-1.14-3.6-1.59-5.43-.19-.78-.81-2.95-.38-3.56s.79.19,1.07.61.48.9.63,1.2A30,30,0,0,1,191.55,442.27Z" style="fill: rgb(255, 255, 255); transform-origin: 189.476px 432.327px;" id="elrk4d8ezyvx" class="animable"></path><path d="M197.79,454.37l-.78.37c-.35-.68-.69-1.37-1-2-1.42-2.74-2.86-5.47-4.35-8.18-.85-1.54-1.72-3.06-2.63-4.54l-.09-.15-.23-.37c-.07-.12-.16-.25-.25-.38a37.13,37.13,0,0,0-7.57-8.95c-1-.85-2.06-1.65-3.13-2.42l-.31-.22-.09-.06-.32-.23-.24-.17c-3.34-2.32-6.87-4.38-10.3-6.52-1-.6-2-1.22-2.94-1.84l-.17-.11-.22-.13c-4.33-2.72-8.64-5.5-13-8.1-.17-.09,0-.33.16-.24,3,1.72,5.93,3.36,8.91,5,.4.22.79.45,1.19.66l2.35,1.32c1.57.89,3.12,1.78,4.66,2.7A126.29,126.29,0,0,1,180.15,428l.89.71c.18.15.37.3.54.46s.42.34.62.52a39.87,39.87,0,0,1,8.53,11.09l.48.86.22.4a2.25,2.25,0,0,0,.12.21,1.51,1.51,0,0,0,.15.28h0a2.12,2.12,0,0,0,.11.21c.13.25.26.5.4.75q2.16,4.1,4.22,8.23C196.87,452.62,197.33,453.49,197.79,454.37Z" style="fill: rgb(69, 90, 100); transform-origin: 173.945px 432.425px;" id="el76vwhxmogt5" class="animable"></path><path d="M150.34,415.09c-3.52-1.86-9.11-6.5-7.42-11.1a3.73,3.73,0,0,1,4.32-2.47c2.25.41,4.09,2.34,5.53,4,3.86,4.36,7.27,9,11.44,13.13a5.48,5.48,0,0,1,.45.43c.09.09-.06.21-.14.13l-.41-.4C159.51,417.93,154.52,417.3,150.34,415.09Z" style="fill: rgb(69, 90, 100); transform-origin: 153.649px 410.337px;" id="ele3m4plgdy9v" class="animable"></path><path d="M164.24,418.61l-.09-.06a38.41,38.41,0,0,1-3.79-2.78,78.86,78.86,0,0,1-7-6.79c-.87-.92-4.94-5.49-5.82-2.47-.37,1.27.49,2.79,1.14,3.82a15,15,0,0,0,4,4.19c3.17,2.25,6.92,3.3,10.68,4l.51.1.14.1.1.06.06,0a.14.14,0,0,0,.14-.15A.12.12,0,0,0,164.24,418.61Zm-1.11-.18a31.63,31.63,0,0,1-8.93-3.18,16.51,16.51,0,0,1-3.88-3.08,12.72,12.72,0,0,1-1.36-1.74,9.67,9.67,0,0,1-.79-1.45c-.49-1.1-.6-2.51,0-2.93s1.21-.19,2.17.48a8.31,8.31,0,0,1,.93.73,29.43,29.43,0,0,1,2.09,2.09c1.11,1.19,2.23,2.37,3.4,3.51.78.77,1.59,1.53,2.42,2.25a42,42,0,0,0,4.53,3.45Z" style="fill: rgb(255, 255, 255); transform-origin: 155.881px 412.136px;" id="elbfbhubcspla" class="animable"></path><path d="M424.07,413.37c-1.69,2.71-3.56,5.3-5.46,7.87-1.07,1.46-2.16,2.9-3.23,4.36s-2.55,3.18-2.9,5.19h0a1.45,1.45,0,0,1-.09.25l0,0a.24.24,0,0,1-.34-.24.68.68,0,0,0,0-.14.11.11,0,0,0,0-.05,8.28,8.28,0,0,1,.07-1.78,43.08,43.08,0,0,1,.5-4.81,39.85,39.85,0,0,1,2.71-9.52,33.37,33.37,0,0,1,4.53-7.6c1.48-1.85,3.65-4.63,6-5.51,2.08-.79,2.18,2.07,2,3.43C427.52,407.94,425.66,410.8,424.07,413.37Z" style="fill: rgb(69, 90, 100); transform-origin: 419.976px 416.158px;" id="elhmsdcdxf19f" class="animable"></path><path d="M424.32,406.07c-1.05-.48-3.38,2.55-4.43,3.84a31.77,31.77,0,0,0-4.16,6.64,41.73,41.73,0,0,0-3.64,13.54l-.06.56a.13.13,0,0,1,0,.06.69.69,0,0,1,0,.13.24.24,0,0,0,.35.24,10.51,10.51,0,0,1,.33-1.13c.1-.34.22-.67.34-1a55.07,55.07,0,0,1,5.45-10.07C420.85,415.1,425.7,406.72,424.32,406.07Zm-11.79,23.47c-.16.49-.3,1-.42,1.48.05-.38.09-.77.15-1.15a46,46,0,0,1,3.14-12,32.49,32.49,0,0,1,3.39-6.1,28.89,28.89,0,0,1,2.34-2.93c.36-.39,2.43-2.87,3-2.43.4.31-.67,2.91-.69,3-.21.52-.45,1-.69,1.55-.5,1.05-1.06,2.07-1.64,3.07-1.25,2.19-2.63,4.31-4,6.45A44.28,44.28,0,0,0,412.53,429.54Z" style="fill: rgb(255, 255, 255); transform-origin: 418.296px 418.563px;" id="el0nd8sf043c6f" class="animable"></path><path d="M436.9,429c-3.66,2.86-8.24,4.23-12.73,5.15-2.4.49-4.83.86-7.25,1.29a32.88,32.88,0,0,0-6.41,1.45l-.27.11a9.36,9.36,0,0,0-1.61.9.12.12,0,0,1-.11,0l-.14.13s-.1,0-.07-.05.08-.11.11-.17v0a.13.13,0,0,1,.05-.15l.07,0,.1-.17c2.59-4.14,7.71-7.15,11.87-9.33s8.75-3.68,13.47-3.37c1.19.08,4,.07,4.62,1.37S437.68,428.35,436.9,429Z" style="fill: rgb(69, 90, 100); transform-origin: 423.524px 431.39px;" id="elrxf3767gdf" class="animable"></path><path d="M433.92,427.6c-.49-1.34-4.23-.33-5.15-.12a50,50,0,0,0-8.08,2.84,44,44,0,0,0-11.88,7h0l-.15.07-.12.18-.06,0a.13.13,0,0,0-.05.16,1.76,1.76,0,0,1,.2-.09c.53-.26,1.07-.5,1.61-.73l.27-.11a97.91,97.91,0,0,1,11.74-3.5,45.64,45.64,0,0,0,8-2.82C430.94,430.22,434.33,428.72,433.92,427.6Zm-1.78,1.62c-4,2.71-9.22,3.64-13.83,4.84a50.07,50.07,0,0,0-9.13,3.09,46.94,46.94,0,0,1,10.87-6.22,63.41,63.41,0,0,1,6.68-2.56,25.46,25.46,0,0,1,3.76-.92,10.53,10.53,0,0,1,2.32-.15C434.26,427.52,432.83,428.75,432.14,429.22Z" style="fill: rgb(255, 255, 255); transform-origin: 421.187px 432.324px;" id="elh5u7nnf1xps" class="animable"></path><path d="M403.88,446.52a.23.23,0,0,1-.24,0,.29.29,0,0,0,0,.09.09.09,0,0,1-.06.09s-.08,0-.09,0c-1.89-5.27-3.28-11.26-2.83-16.88a21.9,21.9,0,0,1,1.65-6.9c.65-1.5,1.95-4.51,3.71-5,3.54-1,1.61,9.27,1.32,10.81-.54,2.82-1.32,5.58-1.91,8.38-.65,3.07-1.07,6.18-1.49,9.29A.22.22,0,0,1,403.88,446.52Z" style="fill: rgb(69, 90, 100); transform-origin: 404.35px 432.276px;" id="elxgf576morva" class="animable"></path><path d="M403.88,446.52c0-.3-.05-.59-.07-.89a47.15,47.15,0,0,1,1.13-14.46,42.76,42.76,0,0,0,1.28-7.2c0-.6.3-2.85-1-2.25-.67.31-2,4.18-2.29,5.22a29.66,29.66,0,0,0-.86,7.26,49.52,49.52,0,0,0,1.44,12.17l.09.35a.07.07,0,0,0,0-.09s0-.05,0-.09A.25.25,0,0,0,403.88,446.52Zm-1.51-10.28a35.21,35.21,0,0,1,.39-7.25,25.06,25.06,0,0,1,.66-2.82,15.42,15.42,0,0,1,.77-2.13c.79-1.67,1.13-2,1.44-2s.34.33.37,1.57a12.41,12.41,0,0,1-.22,2.36c-.2,1.11-.44,2.21-.69,3.31-.49,2.2-1,4.4-1.33,6.63a36.33,36.33,0,0,0-.19,9.66A57.48,57.48,0,0,1,402.37,436.24Z" style="fill: rgb(255, 255, 255); transform-origin: 404.159px 434.17px;" id="el70yr3gx328n" class="animable"></path><path d="M419.37,443a14,14,0,0,1-4.58,3.77c-3.46,1.94-7.28,3.11-10.87,4.8-.53.25-1.06.51-1.59.79a7.1,7.1,0,0,1-.58.47l.42-.58h0c1.26-1.76,5.18-7,8.07-9.31a28.2,28.2,0,0,1,5.82-3.72c1-.43,3.27-1.32,4.26-.44S420,442.16,419.37,443Z" style="fill: rgb(69, 90, 100); transform-origin: 411.214px 445.618px;" id="ell38r2c62oj" class="animable"></path><path d="M418,441c-.88-1.34-6.7,2.88-7.47,3.42a39.38,39.38,0,0,0-7.65,7c-.26.29-.51.6-.75.9l-.42.58s.53-.43.58-.47l.27-.14c.44-.23.88-.44,1.32-.65,2.34-1.43,4.71-2.82,7-4.3a37.42,37.42,0,0,0,4.76-3.54C416,443.44,418.42,441.54,418,441Zm-1.1,1.44c-4.05,4.14-9.44,6.38-14.21,9.51l-.24.15.3-.34a45.76,45.76,0,0,1,6.25-5.88,43.93,43.93,0,0,1,4.33-2.94,20.52,20.52,0,0,1,2.5-1.41c.39-.17,1.46-.57,1.65-.33S417.21,442.12,416.94,442.39Z" style="fill: rgb(255, 255, 255); transform-origin: 409.879px 446.819px;" id="elqd0h0v5rp2o" class="animable"></path><path d="M450.7,407.89c-7.58,6.74-19,6.21-27,12.41l0,0c-.24.19-.48.38-.71.59a.2.2,0,0,1-.3-.09.14.14,0,0,1,.05-.15l.17-.14a48.49,48.49,0,0,1,12-12.38c3.91-2.91,8.49-5.21,13.44-5.41,1.22-.05,3.64-.22,4.35,1.13S451.63,407.07,450.7,407.89Z" style="fill: rgb(69, 90, 100); transform-origin: 437.774px 411.806px;" id="eli0psl0kvze" class="animable"></path><path d="M447.22,406.73c-.3-.57-1.21-.47-1.7-.45a15.65,15.65,0,0,0-3.67.61,25.52,25.52,0,0,0-6.89,3.23,52.75,52.75,0,0,0-10.15,8.19c-.67.72-1.32,1.46-1.92,2.23l-.22.29a.2.2,0,0,0,.3.09c.22-.2.45-.38.68-.57l.07-.06a30.49,30.49,0,0,1,4.84-3.59,74.12,74.12,0,0,1,8.52-4C438.21,412.24,448.29,408.66,447.22,406.73Zm-1.49,1.68a34.87,34.87,0,0,1-6.8,3.26c-2.31,1-4.63,2-6.93,3a35.74,35.74,0,0,0-5.24,2.9,28,28,0,0,0-3.9,3.13,38,38,0,0,1,3.4-3.55l0,0a69.54,69.54,0,0,1,6.85-5.44l.09-.07a32,32,0,0,1,6.68-3.79,18.28,18.28,0,0,1,4-1.12c1.58-.22,2.87-.24,3,.29C447,407.34,446.33,408,445.73,408.41Z" style="fill: rgb(255, 255, 255); transform-origin: 434.985px 413.608px;" id="elycled3ni2c" class="animable"></path><path d="M433.29,411.85c-2.2,1.86-4.37,3.79-6.53,5.72l-3,2.72-.07.06-1.09,1a82,82,0,0,0-9.59,9.41,38.09,38.09,0,0,0-3.82,5.94l-.34.64h0l-.18.36-.1.19c-.92,1.82-1.75,3.69-2.56,5.51-1.11,2.54-2.06,5.14-3,7.74a.9.9,0,0,0-.08.23c-.05.12-.09.24-.13.35a1.39,1.39,0,0,0-.06.19c-.05.11-.08.22-.13.33-.29.84-.58,1.67-.89,2.51l-.77-.35a55.23,55.23,0,0,1,2.51-7.86l.06-.16.3-.74c.12-.31.24-.61.38-.92.3-.73.61-1.46.93-2.17a57.8,57.8,0,0,1,6.64-12l.24-.3a.94.94,0,0,1,.09-.12,1.84,1.84,0,0,1,.17-.22l.27-.33L413,429l.15-.17a88.89,88.89,0,0,1,9-8.27l1.68-1.42.95-.78,1.45-1.16,0,0c2.28-1.83,4.59-3.6,6.85-5.44C433.25,411.58,433.4,411.76,433.29,411.85Z" style="fill: rgb(69, 90, 100); transform-origin: 417.139px 433.217px;" id="el2zvbpp97zrf" class="animable"></path></g><g id="freepik--Robot--inject-23" class="animable" style="transform-origin: 236.833px 256.68px;"><path d="M132.39,272.84c-1.73,13.07,8.5,29.72,19.61,35.16s34.55,2.48,44.62-6.57C202.44,296.2,231,231.66,231.1,217s-21.87-33.07-37.82-24.1S133.79,262.26,132.39,272.84Z" style="fill: rgb(255, 39, 63); transform-origin: 181.649px 250.631px;" id="elidefv77jd" class="animable"></path><g id="elp28w9pnabye"><path d="M224.83,219.3a2.59,2.59,0,1,1-.52-3.41A2.62,2.62,0,0,1,224.83,219.3Zm0,0a2,2,0,1,0-3,.42A2,2,0,0,0,224.83,219.3Z" style="opacity: 0.1; transform-origin: 222.655px 217.886px;" class="animable"></path></g><g id="el1qc1d30qv04"><path d="M216.23,238.48a2.59,2.59,0,1,1-.52-3.4A2.6,2.6,0,0,1,216.23,238.48Zm0,0a1.95,1.95,0,1,0-3,.42A2,2,0,0,0,216.23,238.48Z" style="opacity: 0.1; transform-origin: 214.054px 237.073px;" class="animable"></path></g><g id="elq41c325v5so"><path d="M207.64,257.66a2.59,2.59,0,1,1-.52-3.4A2.61,2.61,0,0,1,207.64,257.66Zm0,0a2,2,0,1,0-3,.42A2,2,0,0,0,207.64,257.66Z" style="opacity: 0.1; transform-origin: 205.462px 256.253px;" class="animable"></path></g><g id="ellih0pcdxv9"><path d="M199,276.84a2.59,2.59,0,1,1-.52-3.4A2.6,2.6,0,0,1,199,276.84Zm0,0a1.95,1.95,0,1,0-3,.42A2,2,0,0,0,199,276.84Z" style="opacity: 0.1; transform-origin: 196.824px 275.433px;" class="animable"></path></g><g id="elwv2zpb8ue6a"><path d="M190.45,296a2.59,2.59,0,1,1-.52-3.4A2.61,2.61,0,0,1,190.45,296Zm0,0a1.95,1.95,0,1,0-3,.43A2,2,0,0,0,190.45,296Z" style="opacity: 0.1; transform-origin: 188.272px 294.593px;" class="animable"></path></g><g id="elulblrkqb2h"><path d="M213.64,212.47a2.59,2.59,0,1,1-.52-3.4A2.6,2.6,0,0,1,213.64,212.47Zm0,0a2,2,0,1,0-3,.42A2,2,0,0,0,213.64,212.47Z" style="opacity: 0.1; transform-origin: 211.464px 211.063px;" class="animable"></path></g><g id="elag55wy5a3rm"><path d="M205,231.65a2.59,2.59,0,1,1-.52-3.4A2.6,2.6,0,0,1,205,231.65Zm0,0a1.94,1.94,0,1,0-3,.43A2,2,0,0,0,205,231.65Z" style="opacity: 0.1; transform-origin: 202.824px 230.243px;" class="animable"></path></g><g id="elpe3le9rvi5"><path d="M196.45,250.83a2.59,2.59,0,1,1-.52-3.4A2.6,2.6,0,0,1,196.45,250.83Zm0,0a1.95,1.95,0,1,0-3,.43A2,2,0,0,0,196.45,250.83Z" style="opacity: 0.1; transform-origin: 194.274px 249.423px;" class="animable"></path></g><g id="elvubyg5ghd4g"><path d="M187.85,270a2.59,2.59,0,1,1-.51-3.4A2.6,2.6,0,0,1,187.85,270Zm0,0a1.94,1.94,0,1,0-3,.43A2,2,0,0,0,187.85,270Z" style="opacity: 0.1; transform-origin: 185.678px 268.587px;" class="animable"></path></g><g id="elxugweg41hzo"><path d="M179.26,289.2a2.59,2.59,0,1,1-.52-3.41A2.61,2.61,0,0,1,179.26,289.2Zm0,0a2,2,0,1,0-3,.42A2,2,0,0,0,179.26,289.2Z" style="opacity: 0.1; transform-origin: 177.087px 287.786px;" class="animable"></path></g><g id="elzw5u6c6lypn"><path d="M165.37,302.25a2.59,2.59,0,1,1-.52-3.4A2.61,2.61,0,0,1,165.37,302.25Zm0,0a1.95,1.95,0,1,0-3,.43A2,2,0,0,0,165.37,302.25Z" style="opacity: 0.1; transform-origin: 163.192px 300.843px;" class="animable"></path></g><g id="elmby3nzaymt"><path d="M221.87,206.08q-18.35,40.63-38.08,80.62c-1.69,3.32-3.29,6.66-5.13,9.92a12.44,12.44,0,0,1-2.46,2.85,100.84,100.84,0,0,1-12,8.8,107.94,107.94,0,0,0,11.65-9.16,12.14,12.14,0,0,0,2.33-2.79c1.74-3.24,3.29-6.64,4.91-10,11.9-24.92,26.53-55.68,38.77-80.28Z" style="opacity: 0.1; transform-origin: 193.035px 257.155px;" class="animable"></path></g><path d="M132.68,185.66c-10.57-7.88-29.14-3-39.3,4S71.26,210.3,74.25,223.5c1.72,7.64,46.32,68.3,59.07,75.58s39.53-3,39.48-21.27S141.23,192,132.68,185.66Z" style="fill: rgb(255, 39, 63); transform-origin: 123.292px 241.525px;" id="elnbq67f32r2" class="animable"></path><g id="eloiitiwogzo"><path d="M122.92,188.57c4.42,2.89-1.42,12.87-13.33,19.9-10.52,6.22-21.69,9.42-24.76,6.93-3.88-3.14,1-13,12.34-20.52C106,189.06,119.54,186.35,122.92,188.57Z" style="opacity: 0.2; transform-origin: 103.954px 202.023px;" class="animable"></path></g><g id="elplpsuii940e"><path d="M124.34,190.84c.64,4.2-5,11.9-14.75,17.63-7.9,4.67-16.16,7.64-21.09,7.78C85.33,213,90,204,100.45,197.06,108.44,191.8,120.49,189.22,124.34,190.84Z" style="opacity: 0.2; transform-origin: 105.955px 203.305px;" class="animable"></path></g><path d="M157.56,231c1.9,4.41,11.8,31.3,11.5,43.26-.39,16.09-12.19,35.78-11.74,36.1a11.9,11.9,0,0,0,3.54,1.31c.59-.06,11.2-17.83,12.51-36.34.85-12.11-13.07-45.73-13.74-45.61A7.4,7.4,0,0,0,157.56,231Z" style="fill: rgb(55, 71, 79); transform-origin: 165.357px 270.695px;" id="elxde9i8c9qah" class="animable"></path><g id="el4fmmzk4xytt"><path d="M131.65,210.84a2.59,2.59,0,1,1-.52-3.4A2.6,2.6,0,0,1,131.65,210.84Zm0,0a1.94,1.94,0,1,0-3,.43A2,2,0,0,0,131.65,210.84Z" style="opacity: 0.1; transform-origin: 129.474px 209.433px;" class="animable"></path></g><g id="eleuiy1xf6l7m"><path d="M140.52,202.09a2.59,2.59,0,1,1-.52-3.4A2.6,2.6,0,0,1,140.52,202.09Zm0,0a1.95,1.95,0,1,0-3,.42A2,2,0,0,0,140.52,202.09Z" style="opacity: 0.1; transform-origin: 138.344px 200.683px;" class="animable"></path></g><g id="elzgg0bn79spe"><path d="M142,230a2.59,2.59,0,1,1-.52-3.4A2.6,2.6,0,0,1,142,230Zm0,0a1.94,1.94,0,1,0-3,.43A2,2,0,0,0,142,230Z" style="opacity: 0.1; transform-origin: 139.824px 228.593px;" class="animable"></path></g><g id="elfziq15sqwe"><path d="M151.43,223.09a2.59,2.59,0,1,1-.52-3.41A2.61,2.61,0,0,1,151.43,223.09Zm0,0a1.95,1.95,0,1,0-3,.42A2,2,0,0,0,151.43,223.09Z" style="opacity: 0.1; transform-origin: 149.257px 221.676px;" class="animable"></path></g><g id="elggw4ubgmxrd"><path d="M152.41,249.2a2.59,2.59,0,1,1-4.36-2.78,2.59,2.59,0,1,1,4.36,2.78Zm0,0a1.94,1.94,0,1,0-3,.43A2,2,0,0,0,152.41,249.2Z" style="opacity: 0.1; transform-origin: 150.23px 247.81px;" class="animable"></path></g><g id="elo1x2vinhpys"><path d="M160.74,242.37a2.59,2.59,0,1,1-.52-3.4A2.6,2.6,0,0,1,160.74,242.37Zm0,0a1.95,1.95,0,1,0-3,.42A2,2,0,0,0,160.74,242.37Z" style="opacity: 0.1; transform-origin: 158.564px 240.963px;" class="animable"></path></g><g id="elqhrn85mcpk8"><path d="M162.8,268.39a2.59,2.59,0,1,1-.52-3.41A2.62,2.62,0,0,1,162.8,268.39Zm0,0a2,2,0,1,0-3,.42A2,2,0,0,0,162.8,268.39Z" style="opacity: 0.1; transform-origin: 160.625px 266.976px;" class="animable"></path></g><g id="elrony0os6upo"><path d="M125.08,195.48a13.41,13.41,0,0,1,9.33,7.31c2,3.52,4,7.08,6,10.63C150.82,233.12,161.7,252.83,169,274a21.43,21.43,0,0,1,1.17,6,22.93,22.93,0,0,0-1.42-5.89c-8.08-20.8-18.95-40.41-29.09-60.25-1.88-3.6-3.77-7.19-5.71-10.76a13.31,13.31,0,0,0-8.9-7.55Z" style="opacity: 0.1; transform-origin: 147.61px 237.74px;" class="animable"></path></g><g id="elgb6t4bb7kfc"><path d="M152.51,300.07a33.25,33.25,0,0,1-7.45,1.32,31.38,31.38,0,0,1-4.84-3.73c-9.66-9-49.59-65.87-51.65-71.81a19.48,19.48,0,0,1-.58-9.6c2.77,0,6.75-.93,11.18-2.66-.15,2.92-.23,6.81.28,8.88.89,3.6,36,60,43.38,68.6A68,68,0,0,0,152.51,300.07Z" style="fill: rgb(255, 255, 255); opacity: 0.2; transform-origin: 120.076px 257.49px;" class="animable"></path></g><g id="elo4rbb80jtu"><path d="M92.07,237.55h-.14A1.51,1.51,0,0,1,90.49,236,1.49,1.49,0,0,1,92,234.55a28.34,28.34,0,0,0,10.65-3.61,1.5,1.5,0,1,1,1.51,2.59C99.59,236.23,94,237.55,92.07,237.55Z" style="opacity: 0.1; transform-origin: 97.7206px 234.129px;" class="animable"></path></g><g id="elfyajlbnx5o9"><path d="M95.06,243h-.13a1.5,1.5,0,0,1,.11-3,28.15,28.15,0,0,0,10.64-3.61A1.5,1.5,0,0,1,107.2,239C102.59,241.69,97,243,95.06,243Z" style="opacity: 0.1; transform-origin: 100.716px 239.593px;" class="animable"></path></g><path d="M192.52,305.18c0,.05,0,.08-.05.13-3,8.85-19.9,12.9-38,9-16-3.43-27.48-11.85-28.14-19.92a8.8,8.8,0,0,1,.38-3.34c2.85-8.93,19.88-13,38.05-9.14S195.37,296.22,192.52,305.18Z" style="fill: rgb(38, 50, 56); transform-origin: 159.615px 298.124px;" id="elmmd0o5m3h8" class="animable"></path><path d="M192.47,305.31c-3,8.85-19.9,12.9-38,9-16-3.43-27.48-11.85-28.14-19.92,3-8.86,19.93-12.9,38-9C180.3,288.79,191.82,297.23,192.47,305.31Z" style="fill: rgb(69, 90, 100); transform-origin: 159.4px 299.849px;" id="elcdadlfq1uq" class="animable"></path><path d="M231.57,232.83c-6.25,17.56-22.47,27.82-36.21,22.92s-19.82-23.1-13.57-40.66,22.47-27.81,36.22-22.91S237.83,215.27,231.57,232.83Z" style="fill: rgb(55, 71, 79); transform-origin: 206.684px 223.965px;" id="el335vgu098zl" class="animable"></path><path d="M231.13,232.66c-5.26,14.83-18.95,23.48-30.52,19.36-.19-.1-.44-.16-.63-.25-11.18-4.46-16-19.52-10.82-34.07,4.68-13.07,15.94-21.38,26.54-20.24a19.12,19.12,0,0,1,4,.94C231.27,202.52,236.42,217.88,231.13,232.66Z" style="fill: rgb(69, 90, 100); transform-origin: 210.145px 225.201px;" id="el944ju0qanll" class="animable"></path><path d="M226.53,231.49c-4.69,13.11-16,21.42-26.55,20.28-11.18-4.46-16-19.52-10.82-34.07,4.68-13.07,15.94-21.38,26.54-20.24C226.87,201.92,231.66,217,226.53,231.49Z" style="fill: rgb(38, 50, 56); transform-origin: 207.832px 224.615px;" id="el7unvurg71ue" class="animable"></path><path d="M221.87,219.72l-12.2-5.32c-1.23-.55-5.35,2.21-7.39,6.78s-1.21,9.21,0,9.76l12.2,5.32Z" style="fill: rgb(55, 71, 79); transform-origin: 211.456px 225.295px;" id="el8vhaned58ow" class="animable"></path><path d="M221.87,219.72c2.17,1,2.29,5.46.25,10s-5.45,7.49-7.62,6.52-2.29-5.46-.26-10S219.69,218.75,221.87,219.72Z" style="fill: rgb(69, 90, 100); transform-origin: 218.184px 227.98px;" id="eluya9jqvi7os" class="animable"></path><path d="M236.75,358.31c.15,1.14,4.29,6.4,16.27,3,1.62-.47,22.08-32.92,21.58-34s-25-4.17-26.1-3.39S236.48,356.27,236.75,358.31Z" style="fill: rgb(38, 50, 56); transform-origin: 255.677px 343.117px;" id="elnurmqr7kt7b" class="animable"></path><path d="M252.31,463.89,277,461.2s3-26.9,2.69-38.62-14.46-63.14-14.46-63.14l-14.51-3.05Z" style="fill: rgb(255, 39, 63); transform-origin: 265.216px 410.14px;" id="el8krtzzn8cyd" class="animable"></path><g id="ell1nfa37pdx8"><path d="M252.31,463.89,277,461.2s3-26.9,2.69-38.62-14.46-63.14-14.46-63.14l-14.51-3.05Z" style="opacity: 0.1; transform-origin: 265.216px 410.14px;" class="animable"></path></g><path d="M221.67,355.16l29,1.23s6.76,47,6.94,62-5.34,45.53-5.34,45.53h-68S207.39,416.44,221.67,355.16Z" style="fill: rgb(255, 39, 63); transform-origin: 220.942px 409.54px;" id="el29gclwr481w" class="animable"></path><g id="els9cqr78h44"><path d="M227.6,362.16a2.59,2.59,0,1,1-.52-3.4A2.6,2.6,0,0,1,227.6,362.16Zm0,0a1.95,1.95,0,1,0-3,.42A2,2,0,0,0,227.6,362.16Z" style="opacity: 0.1; transform-origin: 225.424px 360.753px;" class="animable"></path></g><g id="el2hiiehx270b"><path d="M247.61,362.49a2.59,2.59,0,1,1-.52-3.4A2.61,2.61,0,0,1,247.61,362.49Zm0,0a1.95,1.95,0,1,0-3,.43A2,2,0,0,0,247.61,362.49Z" style="opacity: 0.1; transform-origin: 245.432px 361.083px;" class="animable"></path></g><g id="el03i6w6pv650f"><path d="M249.54,459.47a2.59,2.59,0,1,1-.52-3.41A2.61,2.61,0,0,1,249.54,459.47Zm0,0a2,2,0,1,0-3,.42A2,2,0,0,0,249.54,459.47Z" style="opacity: 0.1; transform-origin: 247.367px 458.056px;" class="animable"></path></g><g id="ellgzg78v91t"><path d="M195.17,459.13a2.59,2.59,0,1,1-.52-3.4A2.61,2.61,0,0,1,195.17,459.13Zm0,0a1.95,1.95,0,1,0-3,.43A2,2,0,0,0,195.17,459.13Z" style="opacity: 0.1; transform-origin: 192.992px 457.723px;" class="animable"></path></g><g id="elq8oaonznb8"><path d="M237.74,355.84s2.07,51.3,0,65.77c-1.25,8.73-14.91,42.28-14.91,42.28h16.72s7-30.76,8.47-42.28-5.19-65.56-5.19-65.56Z" style="fill: rgb(255, 255, 255); opacity: 0.2; transform-origin: 235.531px 409.865px;" class="animable"></path></g><g id="elpusc9ws8wm"><path d="M244.66,356.13s6.77,49.26,6.05,65.28c-.4,8.81-6,42.48-6,42.48h2.29s5.55-30.56,6.09-42.15c.61-13-7.18-65.62-7.18-65.62Z" style="fill: rgb(255, 255, 255); opacity: 0.2; transform-origin: 248.892px 410.005px;" class="animable"></path></g><path d="M222.83,465.68l10.95-.45S226.35,432,213,433.73Z" style="fill: rgb(55, 71, 79); transform-origin: 223.39px 449.672px;" id="el2vgu9ewdxzo" class="animable"></path><path d="M191.45,465.68h31.38s-.38-30.42-9.8-31.95S191.45,465.68,191.45,465.68Z" style="fill: rgb(69, 90, 100); transform-origin: 207.14px 449.68px;" id="elrlrfah5mczi" class="animable"></path><path d="M325.52,283.66c-.16,4.31-2.55,38.47-6,42.1s-17.83,9.67-28.7,11.29c-14.43,2.15-34-3.31-41.64-9.13s-18-53.34-15.81-55.22,46.94-8.76,63.87-5.69S325.66,279.77,325.52,283.66Z" style="fill: rgb(55, 71, 79); transform-origin: 279.297px 301.88px;" id="el5xaydzc0qhg" class="animable"></path><path d="M319.23,323.79a131.86,131.86,0,0,1-16.7,7.11c-5.72,2-11.68,3.41-17.72,3.3a81.69,81.69,0,0,1-17.92-2.47,157.41,157.41,0,0,1-17.37-5.31A126,126,0,0,0,266.81,332a82.19,82.19,0,0,0,18,2.64c6.12.06,12.11-1.47,17.82-3.47A110.15,110.15,0,0,0,319.23,323.79Z" style="fill: rgb(38, 50, 56); transform-origin: 284.375px 329.216px;" id="el5q4ag1hpxzl" class="animable"></path><path d="M320,319.08a136.81,136.81,0,0,1-17.42,7.42c-6,2-12.17,3.56-18.47,3.44a85.6,85.6,0,0,1-18.69-2.57,162.91,162.91,0,0,1-18.1-5.54,133.86,133.86,0,0,0,18,5.85,85.5,85.5,0,0,0,18.77,2.74c6.38.07,12.62-1.53,18.58-3.62A114.48,114.48,0,0,0,320,319.08Z" style="fill: rgb(38, 50, 56); transform-origin: 283.66px 324.751px;" id="elthkavsj7ti" class="animable"></path><path d="M320.7,314.68a141,141,0,0,1-18,7.69c-6.17,2.1-12.6,3.69-19.13,3.57a89.39,89.39,0,0,1-19.36-2.67,169,169,0,0,1-18.75-5.75,139.25,139.25,0,0,0,18.67,6.06,89.2,89.2,0,0,0,19.44,2.84c6.6.06,13.07-1.59,19.24-3.75A119.77,119.77,0,0,0,320.7,314.68Z" style="fill: rgb(38, 50, 56); transform-origin: 283.08px 320.551px;" id="elbmf0y2vydl" class="animable"></path><path d="M320.11,310.65a141.52,141.52,0,0,1-18,7.69c-6.18,2.11-12.61,3.69-19.14,3.57a88.78,88.78,0,0,1-19.36-2.67,168.14,168.14,0,0,1-18.74-5.75,138.33,138.33,0,0,0,18.67,6.06,88.42,88.42,0,0,0,19.43,2.84c6.6.07,13.07-1.59,19.24-3.75A119.32,119.32,0,0,0,320.11,310.65Z" style="fill: rgb(38, 50, 56); transform-origin: 282.49px 316.521px;" id="eljpv7uexhybl" class="animable"></path><path d="M320.76,306a145.42,145.42,0,0,1-18.67,8c-6.39,2.18-13,3.82-19.81,3.7a91.88,91.88,0,0,1-20-2.77,173.22,173.22,0,0,1-19.41-6,142.43,142.43,0,0,0,19.33,6.27,92.3,92.3,0,0,0,20.12,2.94c6.84.07,13.53-1.64,19.92-3.88A125.66,125.66,0,0,0,320.76,306Z" style="fill: rgb(38, 50, 56); transform-origin: 281.815px 312.071px;" id="elty9eqegavp" class="animable"></path><path d="M321.82,300.87a151.24,151.24,0,0,1-19.17,8.18c-6.56,2.24-13.4,3.92-20.34,3.8A94.4,94.4,0,0,1,261.72,310a175.64,175.64,0,0,1-19.93-6.12,145,145,0,0,0,19.85,6.43,94.22,94.22,0,0,0,20.66,3c7,.07,13.9-1.68,20.46-4A128.35,128.35,0,0,0,321.82,300.87Z" style="fill: rgb(38, 50, 56); transform-origin: 281.805px 307.091px;" id="eltce49jhe9j" class="animable"></path><path d="M322.66,296a155.76,155.76,0,0,1-19.91,8.51c-6.81,2.32-13.92,4.07-21.13,3.94a98,98,0,0,1-21.38-2.95,185,185,0,0,1-20.69-6.36,153,153,0,0,0,20.62,6.67,98.22,98.22,0,0,0,21.45,3.13c7.29.07,14.43-1.75,21.24-4.13A133.71,133.71,0,0,0,322.66,296Z" style="fill: rgb(38, 50, 56); transform-origin: 281.105px 302.471px;" id="elt35q0q8earb" class="animable"></path><path d="M323.11,291.31a157.21,157.21,0,0,1-20.44,8.74c-7,2.39-14.3,4.19-21.71,4.06a100.08,100.08,0,0,1-22-3,187.72,187.72,0,0,1-21.26-6.54,158.48,158.48,0,0,0,21.18,6.85,100.5,100.5,0,0,0,22,3.21c7.49.08,14.82-1.79,21.82-4.24A136.91,136.91,0,0,0,323.11,291.31Z" style="fill: rgb(38, 50, 56); transform-origin: 280.405px 297.971px;" id="elv5ljmilpbjc" class="animable"></path><path d="M322.39,286.38a160.14,160.14,0,0,1-20.45,8.74c-7,2.39-14.3,4.19-21.7,4.06a101.47,101.47,0,0,1-22-3A190.26,190.26,0,0,1,237,289.6a158.48,158.48,0,0,0,21.18,6.85,101.1,101.1,0,0,0,22,3.21c7.49.08,14.82-1.79,21.82-4.24A136.91,136.91,0,0,0,322.39,286.38Z" style="fill: rgb(38, 50, 56); transform-origin: 279.695px 293.021px;" id="elhc1ngt3aon9" class="animable"></path><path d="M321.67,281.45a158.67,158.67,0,0,1-20.45,8.73c-7,2.4-14.3,4.19-21.7,4.06a100.17,100.17,0,0,1-22-3,188.14,188.14,0,0,1-21.25-6.53,158.44,158.44,0,0,0,21.18,6.84,100.51,100.51,0,0,0,22,3.22c7.49.07,14.82-1.8,21.82-4.24A136.91,136.91,0,0,0,321.67,281.45Z" style="fill: rgb(38, 50, 56); transform-origin: 278.97px 288.111px;" id="elprx1z7jz3j7" class="animable"></path><path d="M321,276.51a157.34,157.34,0,0,1-20.45,8.74c-7,2.39-14.3,4.19-21.7,4.06a100.17,100.17,0,0,1-22-3,188.19,188.19,0,0,1-21.25-6.54,158,158,0,0,0,21.18,6.85,100.5,100.5,0,0,0,22,3.21c7.49.08,14.82-1.79,21.82-4.24A136.91,136.91,0,0,0,321,276.51Z" style="fill: rgb(38, 50, 56); transform-origin: 278.3px 283.171px;" id="el7tzk6pdejgl" class="animable"></path><path d="M320.23,271.58a160.14,160.14,0,0,1-20.45,8.74c-7,2.39-14.3,4.19-21.71,4.06a101.38,101.38,0,0,1-22-3,190.26,190.26,0,0,1-21.25-6.54A158,158,0,0,0,256,281.65a101.1,101.1,0,0,0,22,3.21c7.49.08,14.82-1.79,21.82-4.24A137.37,137.37,0,0,0,320.23,271.58Z" style="fill: rgb(38, 50, 56); transform-origin: 277.525px 278.221px;" id="el452pmpf886y" class="animable"></path><path d="M299.45,161c1.94-1.12,33.88-3.45,34.64-3.44s28.51,18,30.59,20.32S359.56,285,359.34,286.34s-23,13.47-26.18,14.54S299.45,161,299.45,161Z" style="fill: rgb(255, 39, 63); transform-origin: 332.253px 229.223px;" id="eljttcj9f6aip" class="animable"></path><g id="elgbj6siox0kv"><path d="M299.45,161c1.94-1.12,33.88-3.45,34.64-3.44s28.51,18,30.59,20.32S359.56,285,359.34,286.34s-23,13.47-26.18,14.54S299.45,161,299.45,161Z" style="opacity: 0.1; transform-origin: 332.253px 229.223px;" class="animable"></path></g><g id="elg0dmjj7zwcc"><path d="M364.83,178.29l-56.94,21C303,177.54,299.45,161,299.45,161c1.95-1.11,33.88-3.44,34.64-3.43s28.52,18,30.58,20.32A1,1,0,0,1,364.83,178.29Z" style="opacity: 0.1; transform-origin: 332.14px 178.43px;" class="animable"></path></g><path d="M182.61,207c-.17,6.93,28.75,78.66,43.54,104.31.52.9,10,1.14,21.88-.1,3.83-.4,5.63-30.1,13-30,6.16.11,24.33,26.52,30.84,26.27,10.55-.4,38-4.69,41.34-6.63,2.91-1.68,6.48-108.25,5.59-112.69S302.9,161.83,299.45,161s-90.13,12.47-93.23,14.14S182.66,204.73,182.61,207Z" style="fill: rgb(255, 39, 63); transform-origin: 260.774px 236.513px;" id="elm59o5862zt" class="animable"></path><g id="elnhky2itk2m"><path d="M191.44,210.07a2.59,2.59,0,1,1-.52-3.41A2.6,2.6,0,0,1,191.44,210.07Zm0,0a1.95,1.95,0,1,0-3,.42A2,2,0,0,0,191.44,210.07Z" style="opacity: 0.1; transform-origin: 189.268px 208.656px;" class="animable"></path></g><g id="elek21i2m084"><path d="M230.8,307.36a2.59,2.59,0,1,1-.52-3.4A2.61,2.61,0,0,1,230.8,307.36Zm0,0a1.95,1.95,0,1,0-3,.43A2,2,0,0,0,230.8,307.36Z" style="opacity: 0.1; transform-origin: 228.622px 305.953px;" class="animable"></path></g><g id="eljdf4p2d4rf"><path d="M329.46,297.38a2.59,2.59,0,1,1-.52-3.4A2.61,2.61,0,0,1,329.46,297.38Zm0,0a1.95,1.95,0,1,0-3,.43A2,2,0,0,0,329.46,297.38Z" style="opacity: 0.1; transform-origin: 327.282px 295.973px;" class="animable"></path></g><g id="el1imxucyx81q"><path d="M331.2,191a2.59,2.59,0,1,1-.52-3.4A2.6,2.6,0,0,1,331.2,191Zm0,0a1.95,1.95,0,1,0-3,.43A2,2,0,0,0,331.2,191Z" style="opacity: 0.1; transform-origin: 329.024px 189.593px;" class="animable"></path></g><path d="M263.49,297.72c13.4-1.2,25.44-11.7,23.4-29.11-2.36-20.1-15-28.05-29.81-27-9.91.68-23.58,10.06-21.78,29.27C237.4,293.31,254.67,298.51,263.49,297.72Z" style="fill: rgb(255, 39, 63); transform-origin: 261.128px 269.657px;" id="elfal7ss25pqw" class="animable"></path><g id="elgmgvt83vd7"><g style="opacity: 0.1; transform-origin: 261.128px 269.657px;" class="animable"><path d="M263.49,297.72c13.4-1.2,25.44-11.7,23.4-29.11-2.36-20.1-15-28.05-29.81-27-9.91.68-23.58,10.06-21.78,29.27C237.4,293.31,254.67,298.51,263.49,297.72Z" id="elh7tcodl9sbl" class="animable" style="transform-origin: 261.128px 269.657px;"></path></g></g><path d="M262.08,295.22c12.5-1.12,23.73-10.92,21.83-27.16-2.2-18.75-14-26.17-27.82-25.22-9.24.63-22,9.38-20.32,27.3C237.73,291.1,253.85,296,262.08,295.22Z" style="fill: rgb(255, 39, 63); transform-origin: 259.87px 269.028px;" id="elknwcp9ir35" class="animable"></path><g id="elavpzx5qfxf"><g style="opacity: 0.1; transform-origin: 259.261px 269.403px;" class="animable"><path d="M263.77,292.16c11.65-3.27,17-15.27,14.09-26.58-1.35-5.31-3.56-10.68-7.73-14.37-5.55-5.11-14.68-5.4-20.92-1.41a19.57,19.57,0,0,0-6.69,7.63c-3.73,7.48-2.73,16.65.71,24.07,3.37,7.74,12.18,12.8,20.54,10.66Zm0,0c-8.41,2.23-17.23-2.84-20.82-10.52-3.68-7.51-4.91-16.85-1.19-24.59a20.18,20.18,0,0,1,8.78-9.14c6.45-3,14.86-2.32,20.16,2.67,4.25,3.88,6.38,9.42,7.64,14.89,2.72,11.34-2.9,23.57-14.57,26.69Z" id="el50f0x20y71" class="animable" style="transform-origin: 259.261px 269.403px;"></path></g></g><path d="M263.6,291.31c9.34-2.54,16.86-12.2,13.8-25.59-3.54-15.45-13.19-20.17-23.57-17.6-6.94,1.72-15.71,10.7-12.65,25.52C244.76,291,257.44,293,263.6,291.31Z" style="fill: rgb(255, 39, 63); transform-origin: 259.323px 269.627px;" id="elnw9ltydrj9" class="animable"></path><g id="eleri53akupej"><g style="opacity: 0.2; transform-origin: 259.323px 269.613px;" class="animable"><path d="M262.92,287.86c7.86-2.13,14.19-10.26,11.61-21.52-3-13-11.1-17-19.83-14.81-5.83,1.45-13.22,9-10.64,21.47C247.07,287.58,257.74,289.27,262.92,287.86Z" style="fill: rgb(255, 255, 255); transform-origin: 259.323px 269.613px;" id="elf9u7nfywuwc" class="animable"></path></g></g><path d="M340.31,356.39c0,1.15-2.47,10.24-14.79,8.35-1.67-.26-29.48-30.47-29.12-31.62.19-.61,3.57-7.56,9.9-9.85s13.19-.23,13.74.07C321.19,324,340.32,354.34,340.31,356.39Z" style="fill: rgb(38, 50, 56); transform-origin: 318.353px 343.6px;" id="el1xtanmm0lu5j" class="animable"></path><path d="M342.89,350.4l9.42,1.11s32.27,42.64,37.65,53.4,14.6,50.52,14.6,50.52l-23.25,8.46Z" style="fill: rgb(255, 39, 63); transform-origin: 373.725px 407.145px;" id="eldlkgtfqfmmo" class="animable"></path><g id="el4uqg9zd1uam"><path d="M342.89,350.4l9.42,1.11s32.27,42.64,37.65,53.4,14.6,50.52,14.6,50.52l-23.25,8.46Z" style="opacity: 0.1; transform-origin: 373.725px 407.145px;" class="animable"></path></g><path d="M312.16,359.91l30.73-9.51s29.68,53.27,32.66,68c3.35,16.52,5.76,45.53,5.76,45.53H301.59S312.16,419.85,312.16,359.91Z" style="fill: rgb(255, 39, 63); transform-origin: 341.45px 407.165px;" id="el02z4egh5wtu4" class="animable"></path><g id="elq53qcya9dfn"><path d="M318.82,366.39a2.59,2.59,0,1,1-.52-3.41A2.61,2.61,0,0,1,318.82,366.39Zm0,0a1.95,1.95,0,1,0-3,.42A2,2,0,0,0,318.82,366.39Z" style="opacity: 0.1; transform-origin: 316.647px 364.976px;" class="animable"></path></g><g id="el6e6rdygnj4w"><path d="M376.36,459.13a2.59,2.59,0,1,1-.52-3.4A2.6,2.6,0,0,1,376.36,459.13Zm0,0a1.95,1.95,0,1,0-3,.43A2,2,0,0,0,376.36,459.13Z" style="opacity: 0.1; transform-origin: 374.184px 457.723px;" class="animable"></path></g><g id="el7bejjthyc2"><path d="M311.33,459.13a2.59,2.59,0,1,1-.52-3.4A2.6,2.6,0,0,1,311.33,459.13Zm0,0a1.94,1.94,0,1,0-3,.43A2,2,0,0,0,311.33,459.13Z" style="opacity: 0.1; transform-origin: 309.154px 457.723px;" class="animable"></path></g><g id="el2l4pqo5oqmy"><path d="M342.49,358.44A2.59,2.59,0,1,1,342,355,2.6,2.6,0,0,1,342.49,358.44Zm0,0a1.95,1.95,0,1,0-3,.43A2,2,0,0,0,342.49,358.44Z" style="opacity: 0.1; transform-origin: 340.342px 356.991px;" class="animable"></path></g><g id="eln4te950598n"><path d="M329.3,354.61l7-2.18s23.55,50.84,26.87,59.41,8.37,52.05,8.37,52.05H355.07s-.5-39.49-2.83-49.3S329.3,354.61,329.3,354.61Z" style="fill: rgb(255, 255, 255); opacity: 0.2; transform-origin: 350.42px 408.16px;" class="animable"></path></g><path d="M348.82,465.68l11.64-.49s-10.18-36.65-30.59-34.44Z" style="fill: rgb(55, 71, 79); transform-origin: 345.165px 448.167px;" id="elrj6dx94kl6" class="animable"></path><path d="M311.74,465.68H351s-7.08-34.93-21.16-34.93C318.44,430.75,311.74,465.68,311.74,465.68Z" style="fill: rgb(69, 90, 100); transform-origin: 331.37px 448.215px;" id="elz0bsdq27z6" class="animable"></path><path d="M190.35,134.5c-1.64,1.37-11.68,10-11.94,13.14s-1.68,25.81,7.41,39.31c.92,1.37,13.29,4,13.29,4Z" style="fill: rgb(255, 39, 63); transform-origin: 188.642px 162.725px;" id="elmam64w1mz4" class="animable"></path><g id="elw2joja5t53"><path d="M190.35,134.5c-1.64,1.37-11.68,10-11.94,13.14s-1.68,25.81,7.41,39.31c.92,1.37,13.29,4,13.29,4Z" style="opacity: 0.1; transform-origin: 188.642px 162.725px;" class="animable"></path></g><path d="M253,86.61c13.69-.35,50.48,2.86,62,18.68s15.1,51,15.1,51l-17.78,7.83s3.91,28.53-4.72,44.07Z" style="fill: rgb(255, 39, 63); transform-origin: 291.55px 147.388px;" id="elta6n2bxb2a" class="animable"></path><g id="elnldjh0r648e"><path d="M253,86.61c13.69-.35,50.48,2.86,62,18.68s15.1,51,15.1,51l-17.78,7.83s3.91,28.53-4.72,44.07Z" style="opacity: 0.1; transform-origin: 291.55px 147.388px;" class="animable"></path></g><path d="M192.43,117.56C184.38,135.42,196,200,202.12,215s30.68,28.32,55.74,24.11,47.68-18,51.13-35.57-4.75-89.1-17.9-102.43c-10.83-11-28.34-17.25-53.92-13.1C218,91.15,201.72,96.94,192.43,117.56Z" style="fill: rgb(255, 39, 63); transform-origin: 249.732px 163.309px;" id="el5ukl2m0qr9s" class="animable"></path><g id="elwhkb2fabyc"><path d="M192.43,117.56c-7,18.45,1.14,63.24,5.83,83.15a118,118,0,0,0,3.94,13.41c5.39,13,19.39,20.36,32.46,23.53a61.15,61.15,0,0,0,27.48-.19c16.95-3.92,37.05-12.6,44.42-29.44l.63-1.56.44-1.63a19.24,19.24,0,0,0,.68-3.31c1.43-16.21-.55-32.59-2.61-48.68-2.15-13.94-6.06-40.86-15-51.33C280.54,90.91,265.37,86.76,251,87c-13.86.53-28.29,2.72-40.47,9.71-8.11,4.75-14.22,12.34-18.06,20.85Zm0,0c3.8-8.54,9.88-16.17,18-21s17.35-7.12,26.55-8.65a111,111,0,0,1,14-1.39c14.61-.42,30,3.57,40.51,14.24a28.77,28.77,0,0,1,4.79,7.52A106.79,106.79,0,0,1,301.9,125a292.85,292.85,0,0,1,8.81,69.67c-.11,4.72-.38,9.7-2.3,14.1-7.72,17.49-28.31,26.39-45.91,30.36a62.24,62.24,0,0,1-28.15-.15c-13.37-3.43-27.55-11.17-32.91-24.57a117.08,117.08,0,0,1-3.78-13.56c-4.35-20.07-12.34-64.85-5.23-83.29Z" style="opacity: 0.1; transform-origin: 250.153px 163.579px;" class="animable"></path></g><path d="M317.39,111.11c-9.67,3.19-13.67,17.91-9.53,34.09s13.94,22.78,22,21.45c6.78-1.11,16.8-10.66,12.32-31.58C337.39,112.56,324.75,108.67,317.39,111.11Z" style="fill: rgb(255, 39, 63); transform-origin: 324.766px 138.645px;" id="eli3skt1cf9z" class="animable"></path><g id="eli15hv618x6"><path d="M321.18,114.76c-14,5.67-9.4,31.25-1,40.1,5.24,5.95,13.27,6.78,18-.14,4.33-6.15,4.13-14.38,2.59-21.48-1.78-9.38-8.31-21.51-19.63-18.48Zm0,0c14.22-3.59,21,14.62,22,25.86.39,5.22-.29,10.79-3.38,15.21-5.46,8-15,7.26-20.89.17-8.27-9.33-11.7-35.71,2.27-41.24Z" style="opacity: 0.1; transform-origin: 327.489px 137.931px;" class="animable"></path></g><path d="M324.52,121.92c-4.31,2.13-5.56,10.68-3,19.8s7.3,12.58,10.95,11.57c3.07-.85,7.29-6.63,4.4-18.45C333.75,122.12,327.8,120.3,324.52,121.92Z" style="fill: rgb(38, 50, 56); transform-origin: 329.018px 137.44px;" id="els4jcm0haxh" class="animable"></path><g id="elhrs386s0aqd"><path d="M255.19,239.53a57.94,57.94,0,0,1-10.59.29l-.83-.42c-10-5.11-23.27-13.73-26.73-26.56s-9-72.87-8.62-88.39c.36-14.1,10.2-26.86,18-34.21,3.14-.81,6.4-1.46,9.75-2C224.6,98.6,219.56,111.64,219.65,122c.1,10.83,6.61,73.54,10.83,89.32C233.29,221.82,246.62,233.15,255.19,239.53Z" style="fill: rgb(255, 255, 255); opacity: 0.2; transform-origin: 231.796px 164.09px;" class="animable"></path></g><path d="M204.07,117c-7,10.86-4.14,53.29,3.34,64s24,11.42,37.11,10.19,36.24-7.07,41.81-16.29-1.09-56.65-11.63-67.14C262.31,95.42,215.75,98.91,204.07,117Z" style="fill: rgb(38, 50, 56); transform-origin: 244.206px 146.053px;" id="eld6k5gmfrq95" class="animable"></path><path d="M205.82,118.29c-6.7,10.38-4,50.94,3.19,61.16s22.91,10.92,35.47,9.75,34.66-6.77,40-15.58-1-54.16-11.11-64.19C261.5,97.64,217,101,205.82,118.29Z" style="fill: rgb(55, 71, 79); transform-origin: 244.198px 146.047px;" id="el1s78a4i7a1l" class="animable"></path><path d="M211,171s-4.36-12.27-1.62-14,24.09,17,24,17.16-19-10.5-21.48-9.85C210.45,164.75,211,171,211,171Z" style="fill: rgb(255, 39, 63); transform-origin: 220.928px 165.524px;" id="el5ymitjt35xy" class="animable"></path><g id="elgs28fs766se"><path d="M210.37,167.53s-2.31-8.47-.23-9.16S230.08,171.84,230,172s-16.57-9.38-18.73-8.83C210.07,163.49,210.37,167.53,210.37,167.53Z" style="fill: rgb(255, 255, 255); opacity: 0.4; transform-origin: 219.636px 165.174px;" class="animable"></path></g><path d="M275.13,164.2s2.39-14.45-2-15.53c-3.31-.82-23,23.57-22.85,23.77s17.91-15.17,21.51-15.11C273.46,157.35,275.13,164.2,275.13,164.2Z" style="fill: rgb(255, 39, 63); transform-origin: 263.029px 160.546px;" id="ele85too4cm6r" class="animable"></path><g id="elwmzei2vsxm"><path d="M274.76,160.55s.77-10.43-1.95-10.43c-2.88,0-17.39,17-17.29,17.19s13.35-11.37,16.55-11.08C273.54,156.36,274.76,160.55,274.76,160.55Z" style="fill: rgb(255, 255, 255); opacity: 0.4; transform-origin: 265.19px 158.716px;" class="animable"></path></g><g id="elmwfij4xuoa"><path d="M206.14,141.63a37.13,37.13,0,0,1,2.8-21.59c3-5.3,11.48-8.4,17.16-9.57-2.68,2.18-5.41,4.09-8,6.06-1.93,1.52-4,2.93-5.36,4.89-3.08,6.35-4.45,13.37-6.57,20.21Z" style="fill: rgb(255, 255, 255); opacity: 0.2; transform-origin: 215.857px 126.05px;" class="animable"></path></g><path d="M389.89,213.63c-1.13,18.6-13.85,33-28.42,32.08S336,229,337.14,210.43s13.85-33,28.42-32.08S391,195,389.89,213.63Z" style="fill: rgb(55, 71, 79); transform-origin: 363.513px 212.03px;" id="el1b6y1apf0fy" class="animable"></path><path d="M389.42,213.59c-.93,15.71-11.68,27.82-23.94,27.08-.21,0-.46,0-.67-.06-12-1.18-20.81-14.3-19.87-29.72.86-13.85,9.38-25,19.87-26.82a19.38,19.38,0,0,1,4.11-.22C381.17,184.6,390.39,197.92,389.42,213.59Z" style="fill: rgb(69, 90, 100); transform-origin: 367.181px 212.263px;" id="elfo1ctnicbp" class="animable"></path><path d="M384.67,213.74c-.86,13.9-9.37,25-19.86,26.87-12-1.18-20.81-14.3-19.87-29.72.86-13.85,9.38-25,19.87-26.82C376.78,185.24,385.57,198.37,384.67,213.74Z" style="fill: rgb(38, 50, 56); transform-origin: 364.802px 212.34px;" id="el0isor6u2zred" class="animable"></path><path d="M376.92,203.74,363.73,202c-1.34-.19-4.53,3.61-5.22,8.56s1.4,9.18,2.74,9.37l13.19,1.72Z" style="fill: rgb(55, 71, 79); transform-origin: 367.647px 211.822px;" id="el2llib9ndbhf" class="animable"></path><path d="M376.92,203.74c2.36.32,3.72,4.6,3,9.55s-3.15,8.71-5.51,8.38-3.72-4.61-3-9.56S374.56,203.41,376.92,203.74Z" style="fill: rgb(69, 90, 100); transform-origin: 375.665px 212.705px;" id="elhimpp2rp1mn" class="animable"></path><path d="M356.93,275.9c-1.21.59.47,9.49,1.93,10.08s24.7.45,33.42-1.59,25.6-13.24,25.92-14.54-1.57-9.08-3.09-8.72S396,270.48,387.52,272,359.06,274.85,356.93,275.9Z" style="fill: rgb(55, 71, 79); transform-origin: 387.375px 273.701px;" id="el3mumrf15ph5" class="animable"></path><path d="M365,333.92c-1.1.38-7.42,22.48-7.49,24.28s2.45,7.31,6.52,10.37,11.64,4,13,3.07,11.7-21.31,11.74-23.75S376.27,330.06,365,333.92Z" style="fill: rgb(55, 71, 79); transform-origin: 373.139px 352.643px;" id="ell9obed3eoz9" class="animable"></path><path d="M388.77,347.9c0,2.43-10.33,22.8-11.74,23.74a4.38,4.38,0,0,1-2.21.34c2.07-7.18,5.37-18.9,5.65-21.37.41-3.42-4.44-12.25-8.33-16.85C381,336,388.79,346,388.77,347.9Z" style="fill: rgb(38, 50, 56); transform-origin: 380.455px 352.882px;" id="elvc1sd4w6q9" class="animable"></path><path d="M405.87,373c1.64,2.91,9.4,4,16.81,1.35,3.29-1.18,10.19-17.3,10.53-22.75s.38-22-.1-23.48-20,4.48-21.08,6.12.07,18.67-1.87,25.31S405.29,372,405.87,373Z" style="fill: rgb(55, 71, 79); transform-origin: 419.632px 351.872px;" id="elcogbmjrhzh6" class="animable"></path><path d="M427.24,328.82c-4.38,4.72-5.57,15.54-6.64,19.37-.94,3.36-8.86,19.62-12.36,26.7a4.66,4.66,0,0,1-2.37-1.85c-.58-1,2.35-6.81,4.29-13.45s.8-23.68,1.87-25.32C412.72,333.21,421.25,330.3,427.24,328.82Z" style="fill: rgb(38, 50, 56); transform-origin: 416.518px 351.855px;" id="ellko6b0heeem" class="animable"></path><path d="M386.28,342.88c-1.28.76-9.88,28.39-9.77,29.81.28,3.5,7.71,9.12,11.86,10s15.2-3.89,16.26-4.75,8.19-14,9.13-16.44,3.22-23.38,2.68-24S387.76,342,386.28,342.88Z" style="fill: rgb(55, 71, 79); transform-origin: 396.515px 360.123px;" id="elqdaxbgevf0c" class="animable"></path><path d="M355.32,279.86c2.28,1,30.84.15,41.34-3.43S418,265.34,418.44,263,396.82,198.36,387.61,189s-34.82-7.17-39.28,8.62S354.06,279.33,355.32,279.86Z" style="fill: rgb(255, 39, 63); transform-origin: 382.827px 231.845px;" id="elv0ozwhvd5c" class="animable"></path><g id="elr62tm4qzmz"><path d="M363.15,275.09a2.59,2.59,0,1,1-.52-3.41A2.61,2.61,0,0,1,363.15,275.09Zm0,0a1.95,1.95,0,1,0-3,.42A2,2,0,0,0,363.15,275.09Z" style="opacity: 0.1; transform-origin: 360.977px 273.676px;" class="animable"></path></g><g id="elfbj62unup4n"><path d="M360.09,257.93a2.59,2.59,0,1,1-.52-3.4A2.6,2.6,0,0,1,360.09,257.93Zm0,0a1.94,1.94,0,1,0-3,.43A2,2,0,0,0,360.09,257.93Z" style="opacity: 0.1; transform-origin: 357.914px 256.523px;" class="animable"></path></g><g id="elcjzk9vt95p5"><path d="M356.44,238.48a2.59,2.59,0,1,1-.52-3.4A2.61,2.61,0,0,1,356.44,238.48Zm0,0a2,2,0,1,0-3,.42A2,2,0,0,0,356.44,238.48Z" style="opacity: 0.1; transform-origin: 354.262px 237.073px;" class="animable"></path></g><g id="elsur2yufl43"><path d="M353.94,218.59a2.59,2.59,0,1,1-.52-3.41A2.61,2.61,0,0,1,353.94,218.59Zm0,0a2,2,0,1,0-3,.42A2,2,0,0,0,353.94,218.59Z" style="opacity: 0.1; transform-origin: 351.767px 217.176px;" class="animable"></path></g><g id="elkl298j8ui89"><path d="M353.4,198.05a2.59,2.59,0,1,1-.52-3.41A2.61,2.61,0,0,1,353.4,198.05Zm0,0a2,2,0,1,0-3,.42A2,2,0,0,0,353.4,198.05Z" style="opacity: 0.1; transform-origin: 351.227px 196.636px;" class="animable"></path></g><g id="eldmp446t3b2v"><path d="M379.1,274.79a2.59,2.59,0,1,1-.52-3.41A2.61,2.61,0,0,1,379.1,274.79Zm0,0a1.95,1.95,0,1,0-3,.42A2,2,0,0,0,379.1,274.79Z" style="opacity: 0.1; transform-origin: 376.927px 273.376px;" class="animable"></path></g><g id="el13v8v8qo9jnq"><path d="M373.92,255.33a2.59,2.59,0,1,1-.52-3.4A2.61,2.61,0,0,1,373.92,255.33Zm0,0a1.95,1.95,0,1,0-3,.43A2,2,0,0,0,373.92,255.33Z" style="opacity: 0.1; transform-origin: 371.742px 253.923px;" class="animable"></path></g><g id="elrlxzej9pz2m"><path d="M369.27,235.88a2.59,2.59,0,1,1-.52-3.4A2.6,2.6,0,0,1,369.27,235.88Zm0,0a1.95,1.95,0,1,0-3,.42A2,2,0,0,0,369.27,235.88Z" style="opacity: 0.1; transform-origin: 367.094px 234.473px;" class="animable"></path></g><g id="elt1dpvgod9p"><path d="M365.28,216a2.59,2.59,0,1,1-.52-3.41A2.62,2.62,0,0,1,365.28,216Zm0,0a2,2,0,1,0-3,.42A2,2,0,0,0,365.28,216Z" style="opacity: 0.1; transform-origin: 363.105px 214.586px;" class="animable"></path></g><g id="elkd08uvp8kr"><path d="M361,196.2a2.59,2.59,0,1,1-.52-3.4A2.6,2.6,0,0,1,361,196.2Zm0,0a1.94,1.94,0,1,0-3,.43A2,2,0,0,0,361,196.2Z" style="opacity: 0.1; transform-origin: 358.824px 194.793px;" class="animable"></path></g><g id="eldhaexayvi7"><path d="M396.59,272.49a2.59,2.59,0,1,1-.52-3.41A2.61,2.61,0,0,1,396.59,272.49Zm0,0a1.95,1.95,0,1,0-3,.42A2,2,0,0,0,396.59,272.49Z" style="opacity: 0.1; transform-origin: 394.417px 271.076px;" class="animable"></path></g><g id="eldcdjak2nd59"><path d="M413.7,264.74a2.59,2.59,0,1,1-.52-3.4A2.59,2.59,0,0,1,413.7,264.74Zm0,0a1.94,1.94,0,1,0-3,.43A2,2,0,0,0,413.7,264.74Z" style="opacity: 0.1; transform-origin: 411.526px 263.333px;" class="animable"></path></g><g id="elrejrf3tqrt"><path d="M353.88,190.74c.08,7.46,1.58,14.85,2.79,22.2,3.73,21.27,8.61,44.71,12.73,66-5.32-21.79-10-43.76-13.49-65.91-1-7.38-2.37-14.85-2-22.32Z" style="opacity: 0.1; transform-origin: 361.624px 234.825px;" class="animable"></path></g><g id="ellxzp5iqib4"><path d="M410.45,269.79a74.1,74.1,0,0,1-8.68,4.61c-3.07-11.63-19-71.61-21.64-77-2.17-4.37-8-10.83-11-13.95.93-.07,1.86-.1,2.79-.08,4.57,2,11.39,5.67,14.55,11.05C391,202.07,407.21,258.44,410.45,269.79Z" style="fill: rgb(255, 255, 255); opacity: 0.2; transform-origin: 389.79px 228.882px;" class="animable"></path></g><path d="M355.92,282.6c-.86.14,7.21,53.72,9.68,58.1s15.73,17.13,36.36,13.15,31.36-20.47,32.88-25.36-13.9-63.26-15.32-62.53-13.16,10.93-28,13.82C374.88,283,359.3,282.07,355.92,282.6Z" style="fill: rgb(255, 39, 63); transform-origin: 395.401px 310.281px;" id="el36a3pbzslbn" class="animable"></path><g id="elngt3bbxvky"><path d="M366.31,290a2.59,2.59,0,1,1-.57-3.39A2.61,2.61,0,0,1,366.31,290Zm0,0a2,2,0,1,0-3,.47A2,2,0,0,0,366.31,290Z" style="opacity: 0.1; transform-origin: 364.111px 288.626px;" class="animable"></path></g><g id="elw9e2pd8ho5"><path d="M369.59,308.45a2.59,2.59,0,1,1-.57-3.39A2.61,2.61,0,0,1,369.59,308.45Zm0,0a1.95,1.95,0,1,0-3,.47A2,2,0,0,0,369.59,308.45Z" style="opacity: 0.1; transform-origin: 367.391px 307.076px;" class="animable"></path></g><g id="elgl7gzx6e43m"><path d="M372.87,326.87a2.59,2.59,0,1,1-.57-3.4A2.62,2.62,0,0,1,372.87,326.87Zm0,0a2,2,0,1,0-2.95.46A2,2,0,0,0,372.87,326.87Z" style="opacity: 0.1; transform-origin: 370.674px 325.49px;" class="animable"></path></g><g id="elb7smevjjdss"><path d="M378.65,345.28a2.59,2.59,0,1,1-.57-3.39A2.6,2.6,0,0,1,378.65,345.28Zm0,0a1.95,1.95,0,1,0-2.95.47A2,2,0,0,0,378.65,345.28Z" style="opacity: 0.1; transform-origin: 376.453px 343.906px;" class="animable"></path></g><g id="el35enszkzu9l"><path d="M392.08,345a2.59,2.59,0,1,1-.57-3.39A2.61,2.61,0,0,1,392.08,345Zm0,0a2,2,0,1,0-2.95.47A2,2,0,0,0,392.08,345Z" style="opacity: 0.1; transform-origin: 389.881px 343.626px;" class="animable"></path></g><g id="elhwh12p55hmo"><path d="M387.5,325.42a2.59,2.59,0,1,1-.57-3.39A2.61,2.61,0,0,1,387.5,325.42Zm0,0a2,2,0,1,0-3,.47A2,2,0,0,0,387.5,325.42Z" style="opacity: 0.1; transform-origin: 385.301px 324.046px;" class="animable"></path></g><g id="elcy17utwy3vd"><path d="M385,306.42a2.59,2.59,0,1,1-.57-3.4A2.62,2.62,0,0,1,385,306.42Zm0,0a1.95,1.95,0,1,0-2.95.46A2,2,0,0,0,385,306.42Z" style="opacity: 0.1; transform-origin: 382.804px 305.04px;" class="animable"></path></g><g id="eln40xwgqvh1r"><path d="M382.92,289.51a2.59,2.59,0,1,1-.57-3.39A2.61,2.61,0,0,1,382.92,289.51Zm0,0a2,2,0,1,0-3,.47A2,2,0,0,0,382.92,289.51Z" style="opacity: 0.1; transform-origin: 380.721px 288.136px;" class="animable"></path></g><g id="elqifdyttp2po"><path d="M400.37,287a2.59,2.59,0,1,1-4.4-2.72,2.59,2.59,0,1,1,4.4,2.72Zm0,0a1.95,1.95,0,1,0-3.31-2.05,2,2,0,0,0,.36,2.51A2,2,0,0,0,400.37,287Z" style="opacity: 0.1; transform-origin: 398.17px 285.64px;" class="animable"></path></g><g id="elyo2pj72zlg"><path d="M417.37,279a2.59,2.59,0,1,1-.57-3.4A2.61,2.61,0,0,1,417.37,279Zm0,0a2,2,0,1,0-2.95.47A2,2,0,0,0,417.37,279Z" style="opacity: 0.1; transform-origin: 415.175px 277.62px;" class="animable"></path></g><g id="eltojatuon0pc"><path d="M370.05,283.15c2,10.25,4.62,25.22,6.48,35.66,1,5.94,2.05,11.9,3.25,17.8.43,3,1.94,5.6,3.3,8.29s2.84,5.33,4.3,8a120.93,120.93,0,0,1-6.87-11.75,17.13,17.13,0,0,1-1.48-4.34c-1.37-5.91-2.38-11.86-3.49-17.8-2-11.91-4-23.84-5.49-35.83Z" style="opacity: 0.1; transform-origin: 378.715px 318.025px;" class="animable"></path></g><g id="ela3tnvzns89r"><path d="M424.79,342.22a47.37,47.37,0,0,1-12.13,8.16c4.17-9.77,3.68-21.55,2.51-27.47-1-5.06-9.68-35.41-12.88-46.56a68.58,68.58,0,0,0,8.16-4.23c3.07,9.67,11.35,36.27,13.79,49.34C426.07,331.3,425.65,338,424.79,342.22Z" style="fill: rgb(255, 255, 255); opacity: 0.2; transform-origin: 413.907px 311.25px;" class="animable"></path></g><g id="elpcngoa17pu"><path d="M430,336.7c-.75.94-1.59,1.91-2.5,2.89,1.25-8.29-.15-17-1-21.59-1-5.23-10.28-37.52-13.19-47.63l.78-.51c1.71,5.31,11.95,37.41,14.7,52.21A66.62,66.62,0,0,1,430,336.7Z" style="fill: rgb(255, 255, 255); opacity: 0.2; transform-origin: 421.668px 304.725px;" class="animable"></path></g><path d="M397.3,242.42s.08,0,.12,0c8.37-.32,17.13,12.6,19.59,29,2.19,14.48-1.22,26.81-7.79,29.92a7.72,7.72,0,0,1-2.92.74c-8.4.45-17.23-12.55-19.73-29S388.88,242.87,397.3,242.42Z" style="fill: rgb(38, 50, 56); transform-origin: 401.79px 272.253px;" id="elaa0g04a1h5l" class="animable"></path><path d="M397.42,242.42c8.37-.32,17.13,12.6,19.59,29,2.19,14.48-1.22,26.81-7.79,29.92-8.37.32-17.14-12.63-19.62-29C387.42,257.86,390.85,245.52,397.42,242.42Z" style="fill: rgb(69, 90, 100); transform-origin: 403.309px 271.88px;" id="elxikvwny1zd" class="animable"></path><path d="M108.69,105.38h0Z" style="fill: rgb(255, 39, 63); transform-origin: 108.69px 105.38px;" id="elmj9s2bb8mz8" class="animable"></path><g id="elz8tjm1otffh"><path d="M121.29,198.48c-4.88,6.75-14.71,11.68-14.71,11.68S99,205.84,89.7,199.9c-13.16-8.37-30.06-17.85-33.55-29.4-1.29-4.27,44.79-1.86,42.6-19.94-1-8.57-67-41.57-58.11-73.95,1.29-4.71,62,8,61.13,5.7S74.63,59.92,81.56,49.26c2.56-3.92,35.86,1,39.06,1.44C118.05,50.43,96,48.22,92,54.41c-6.42,10,45.3,41.59,45.07,45.66-.15,2.38-50.68-10.38-48.09,9.3,2.89,22.13,62,25,62.09,28.26.14,6.57-15.48,32.77-54.8,36.59C84.49,175.36,85.46,187.13,121.29,198.48Z" style="fill: rgb(255, 39, 63); opacity: 0.5; transform-origin: 95.4437px 128.957px;" class="animable"></path></g><g id="elofsr0pkccw"><path d="M119.27,200.91a42,42,0,0,1-9.68,7.56s-44-22.83-46.7-36c-.74-3.64,48.54-3.19,43.51-23.26C104,139.74,42,109.87,49.31,83c1.07-3.91,59.88,4.89,59.16,3S79,60.34,84.75,51.5c2.12-3.26,15-2.11,17.61-1.71-2.14-.23-13.67.92-14.46,4.66-2,9.64,40.85,39,40.65,42.4-.12,2-49.72-9.63-45.53,13.8,3.26,18.25,59.57,27.43,59.63,30.17.11,5.45-15.4,25.86-48.06,29C84.81,170.79,66.34,183.56,119.27,200.91Z" style="fill: rgb(255, 39, 63); opacity: 0.7; transform-origin: 95.681px 128.867px;" class="animable"></path></g><g id="el4170w7zgbgu"><g style="opacity: 0.5; transform-origin: 93.8573px 115.791px;" class="animable"><path d="M76.38,130.38s-12.55.51-18.35-5.08c-7.25-7,6.26-17.31,18.62-21.1a209,209,0,0,1,28.79-6.29s-6-5.81-20.59-5.81c-10.15,0-10.5,7.33-10.5,7.33s-10.95.37-19.22,8.41C48.81,114,43.69,131.41,76.38,130.38Z" style="fill: rgb(255, 39, 63); transform-origin: 77.9466px 111.262px;" id="elqevzy6o7mgn" class="animable"></path><path d="M114.72,128.78c25.76-3.71,29.73,2.1,28.61,7.5-3.28,15.77-35.49,14.62-44.39,15.77-36.81,4.74-15.36,12.59-15.36,12.59s-13.82.27-13.82-6.1c0-6.77,11.56-8.56,31.61-8.56,18.33,0,35.71-7,36.55-15.86C138.51,128,114.72,128.78,114.72,128.78Z" style="fill: rgb(255, 39, 63); transform-origin: 106.629px 146.125px;" id="elekva5zsvnto" class="animable"></path><path d="M46.54,114.82s-6.1,12.59,11.18,15.6c0,0-13.12.65-15.13-5S46.54,114.82,46.54,114.82Z" style="fill: rgb(255, 39, 63); transform-origin: 49.9479px 122.631px;" id="elrri682i3a39" class="animable"></path><path d="M64.88,77.59c8.91-10.54,22.69-3.94,31.38,2.4s19.21,9.33,29.59,2.79c7.06-4.44,7.07-10.48,2.42-11.62s-7.27,5.06-11.6,8.12c-3.88,2.75-9.16,4.89-17.14.49-6-3.3-9.73-10.64-19.53-11.24S64.88,77.59,64.88,77.59Z" style="fill: rgb(255, 39, 63); transform-origin: 98.1894px 77.4766px;" id="ely2ct28qz3op" class="animable"></path><path d="M123.09,70.39a8.88,8.88,0,0,1,11.71,1.36S130.74,61.9,123.09,70.39Z" style="fill: rgb(255, 39, 63); transform-origin: 128.945px 69.3448px;" id="elh9651kd9pc8" class="animable"></path><path d="M140.05,127.17s5.85,2.68,4.4,8.53C144.45,135.7,148.82,126.82,140.05,127.17Z" style="fill: rgb(255, 39, 63); transform-origin: 142.794px 131.43px;" id="elqq365joaqj9" class="animable"></path><path d="M71.42,95.93a1.53,1.53,0,1,1-1.52-1.52A1.53,1.53,0,0,1,71.42,95.93Z" style="fill: rgb(255, 39, 63); transform-origin: 69.89px 95.94px;" id="elmcjdvxyznz" class="animable"></path><path d="M86.67,157.74a1.55,1.55,0,1,1-1.55-1.55A1.55,1.55,0,0,1,86.67,157.74Z" style="fill: rgb(255, 39, 63); transform-origin: 85.12px 157.74px;" id="eli7s73pmpxkj" class="animable"></path><path d="M117.21,71.76a1.53,1.53,0,1,1-1.52-1.53A1.52,1.52,0,0,1,117.21,71.76Z" style="fill: rgb(255, 39, 63); transform-origin: 115.68px 71.76px;" id="eldij32okwd2r" class="animable"></path><path d="M62.82,121.21a.76.76,0,1,1-.76-.76A.76.76,0,0,1,62.82,121.21Z" style="fill: rgb(255, 39, 63); transform-origin: 62.06px 121.21px;" id="eln29phe3h5la" class="animable"></path><path d="M131,86.45a.77.77,0,0,1-.77.76.76.76,0,0,1,0-1.52A.77.77,0,0,1,131,86.45Z" style="fill: rgb(255, 39, 63); transform-origin: 130.235px 86.45px;" id="elikgi5kk547o" class="animable"></path><circle cx="72.24" cy="74.96" r="0.76" style="fill: rgb(255, 39, 63); transform-origin: 72.24px 74.96px;" id="elvwmlqflwf1l" class="animable"></circle><path d="M134.94,132.45a.77.77,0,1,1-1.54,0,.77.77,0,1,1,1.54,0Z" style="fill: rgb(255, 39, 63); transform-origin: 134.17px 132.45px;" id="elzqwyu9m5r4" class="animable"></path><path d="M67.11,156.19a.77.77,0,0,1-.77.78.78.78,0,0,1-.78-.78.77.77,0,0,1,.78-.77A.76.76,0,0,1,67.11,156.19Z" style="fill: rgb(255, 39, 63); transform-origin: 66.335px 156.195px;" id="el3wldwyyvlak" class="animable"></path></g></g><polygon points="83.82 60.14 86.65 59.62 87.28 56.64 87.91 59.62 90.74 60.14 87.93 60.83 87.28 63.64 86.64 60.83 83.82 60.14" style="fill: rgb(255, 255, 255); transform-origin: 87.28px 60.14px;" id="el7q4zxf1tl9l" class="animable"></polygon><polygon points="109.3 133.22 112.13 132.7 112.76 129.72 113.39 132.7 116.22 133.22 113.41 133.91 112.76 136.73 112.12 133.91 109.3 133.22" style="fill: rgb(255, 255, 255); transform-origin: 112.76px 133.225px;" id="ela8a67i3txue" class="animable"></polygon><polygon points="109.3 194.41 112.13 193.89 112.76 190.91 113.39 193.89 116.22 194.41 113.41 195.1 112.76 197.91 112.12 195.1 109.3 194.41" style="fill: rgb(255, 255, 255); transform-origin: 112.76px 194.41px;" id="elwusx20d3ded" class="animable"></polygon><polygon points="38.72 82.41 41.55 81.89 42.18 78.91 42.81 81.89 45.64 82.41 42.82 83.1 42.18 85.91 41.53 83.1 38.72 82.41" style="fill: rgb(255, 255, 255); transform-origin: 42.18px 82.41px;" id="el9a0heurj9ki" class="animable"></polygon><polygon points="66.44 170.64 69.27 170.12 69.9 167.14 70.53 170.12 73.36 170.64 70.54 171.33 69.9 174.15 69.25 171.33 66.44 170.64" style="fill: rgb(255, 255, 255); transform-origin: 69.9px 170.645px;" id="elv5y9oik1m4" class="animable"></polygon><polygon points="119.18 77.44 120.76 77.15 121.11 75.48 121.46 77.15 123.04 77.44 121.47 77.83 121.11 79.4 120.75 77.83 119.18 77.44" style="fill: rgb(255, 255, 255); transform-origin: 121.11px 77.44px;" id="elpz9zjta8ke" class="animable"></polygon><polygon points="47.22 92.58 48.79 92.29 49.15 90.63 49.5 92.29 51.08 92.58 49.51 92.97 49.15 94.54 48.79 92.97 47.22 92.58" style="fill: rgb(255, 255, 255); transform-origin: 49.15px 92.585px;" id="el45z3x0yeq6y" class="animable"></polygon><polygon points="100.97 49.64 102.56 49.35 102.91 47.68 103.26 49.35 104.84 49.64 103.27 50.02 102.91 51.6 102.55 50.02 100.97 49.64" style="fill: rgb(255, 255, 255); transform-origin: 102.905px 49.64px;" id="eleeomxf0pt5o" class="animable"></polygon><polygon points="107.37 95.93 108.95 95.64 109.3 93.97 109.66 95.64 111.24 95.93 109.66 96.32 109.3 97.89 108.94 96.32 107.37 95.93" style="fill: rgb(255, 255, 255); transform-origin: 109.305px 95.93px;" id="elkviqb08x78p" class="animable"></polygon><polygon points="129.02 146.12 130.6 145.82 130.96 144.16 131.31 145.82 132.89 146.12 131.31 146.5 130.96 148.08 130.6 146.5 129.02 146.12" style="fill: rgb(255, 255, 255); transform-origin: 130.955px 146.12px;" id="el2f4qxv3ikal" class="animable"></polygon><polygon points="99.04 190.15 100.62 189.86 100.97 188.19 101.33 189.86 102.91 190.15 101.33 190.54 100.97 192.11 100.61 190.54 99.04 190.15" style="fill: rgb(255, 255, 255); transform-origin: 100.975px 190.15px;" id="ely1akqmxd21" class="animable"></polygon><path d="M66.75,80.51a.46.46,0,0,0,0-.92A.46.46,0,0,0,66.75,80.51Z" style="fill: rgb(255, 255, 255); transform-origin: 66.75px 80.05px;" id="el8o6kweugxnp" class="animable"></path><path d="M103.42,182.73a.46.46,0,0,0,0-.92A.46.46,0,0,0,103.42,182.73Z" style="fill: rgb(255, 255, 255); transform-origin: 103.42px 182.27px;" id="elbjjmjcgdn6n" class="animable"></path><path d="M57.92,84.82a.46.46,0,0,0,0-.91A.46.46,0,0,0,57.92,84.82Z" style="fill: rgb(255, 255, 255); transform-origin: 57.92px 84.365px;" id="eltxwljuolq1l" class="animable"></path><path d="M112.88,146.58a.46.46,0,0,0,0-.92A.46.46,0,0,0,112.88,146.58Z" style="fill: rgb(255, 255, 255); transform-origin: 112.88px 146.12px;" id="eljfuu7kjbmn" class="animable"></path><path d="M87.77,118.16a.33.33,0,0,0,0-.65A.33.33,0,0,0,87.77,118.16Z" style="fill: rgb(255, 255, 255); transform-origin: 87.77px 117.835px;" id="elq6jibhn6g2" class="animable"></path><path d="M128.94,76.37a.33.33,0,0,0,0-.65A.33.33,0,0,0,128.94,76.37Z" style="fill: rgb(255, 255, 255); transform-origin: 128.94px 76.045px;" id="elov1k0dy02r9" class="animable"></path><path d="M72.24,179.52a.33.33,0,0,0,0-.65A.33.33,0,0,0,72.24,179.52Z" style="fill: rgb(255, 255, 255); transform-origin: 72.24px 179.195px;" id="elp0y1ommxfu" class="animable"></path><path d="M107.68,80.05a.33.33,0,0,0,0-.65A.33.33,0,0,0,107.68,80.05Z" style="fill: rgb(255, 255, 255); transform-origin: 107.68px 79.725px;" id="elakwkfqc5cx" class="animable"></path><path d="M95.05,203.05a.33.33,0,0,0,0-.65A.33.33,0,0,0,95.05,203.05Z" style="fill: rgb(255, 255, 255); transform-origin: 95.05px 202.725px;" id="eljv20b75pku" class="animable"></path><path d="M53.53,83.29a.88.88,0,0,0,0-1.76A.88.88,0,0,0,53.53,83.29Z" style="fill: rgb(255, 255, 255); transform-origin: 53.53px 82.41px;" id="elpm32ixhldj" class="animable"></path><path d="M116.54,92.58a.88.88,0,0,0,0-1.75A.88.88,0,0,0,116.54,92.58Z" style="fill: rgb(255, 255, 255); transform-origin: 116.54px 91.705px;" id="el7drc2vn19i9" class="animable"></path></g><defs>     <filter id="active" height="200%">         <feMorphology in="SourceAlpha" result="DILATED" operator="dilate" radius="2"></feMorphology>                <feFlood flood-color="#32DFEC" flood-opacity="1" result="PINK"></feFlood>        <feComposite in="PINK" in2="DILATED" operator="in" result="OUTLINE"></feComposite>        <feMerge>            <feMergeNode in="OUTLINE"></feMergeNode>            <feMergeNode in="SourceGraphic"></feMergeNode>        </feMerge>    </filter>    <filter id="hover" height="200%">        <feMorphology in="SourceAlpha" result="DILATED" operator="dilate" radius="2"></feMorphology>                <feFlood flood-color="#ff0000" flood-opacity="0.5" result="PINK"></feFlood>        <feComposite in="PINK" in2="DILATED" operator="in" result="OUTLINE"></feComposite>        <feMerge>            <feMergeNode in="OUTLINE"></feMergeNode>            <feMergeNode in="SourceGraphic"></feMergeNode>        </feMerge>            <feColorMatrix type="matrix" values="0   0   0   0   0                0   1   0   0   0                0   0   0   0   0                0   0   0   1   0 "></feColorMatrix>    </filter></defs></svg>